**ABCDEFGHIJKLMNOPQRSTUVWXYZabcdefghijklmnopqrstuvwxyz**************************
**PARASOLID !"#$%&'()*+,-./:;<=>?@[\]^_`{|}~0123456789**************************
**PART1;
MC=x64/Windows NT;
MC_MODEL=genuineintel family 6 model 14 stepping 10, intel(r) core(tm) i7-8750h cpu @ 2.20ghz;
MC_ID=laptop-el6957i5;
OS=windows nt (x64);
OS_RELEASE=6.3 windows 10 home (build 18362) ;
FRU=mdc_ugii_v7.0_djl_can_vrh;
APPL=unigraphics;
SITE=unknown;
USER=hello;
FORMAT=text;
GUISE=transmit;
KEY=3-1;
FILE=E:\Work\GoldSun高盛\Siemens NX\教育訓練\NX CAM\高盛應用科技SIEMENS NX CAM 電腦輔助課程\教學檔案\NX12\3-1.x_t;
DATE=31-dec-2019;
**PART2;
SCH=SCH_3101244_31100;
USFLD_SIZE=0;
**PART3;
**END_OF_HEADER*****************************************************************
T51 : TRANSMIT FILE created by modeller version 310124417 SCH_2800000_280020 12
 1 2106 2 3 0 0 0 0 1e3 1e-8 0 0 0 1 0 1 1 4 5 6 7 8 9 10 0 0 0 0 0 0 0 81 1 2 2
106 11 1 12 0 0 0 13 70 3 0 4 T1 0 0 10 20 1 14 14 13 4 3 0 1 0 15 0 0 16 0 51 5
 678 0 17 18 0 0 +-.112 -.037 -.018 0 0 -1 .013 -1 0 0 31 6 658 0 9 19 0 0 --.11
2 -.037 0 0 0 1 1 0 0 .013 29 7 640 0 10 20 0 -.125 -.037 0 19 8 1 0 1 16 0 21 V
0 16 9 653 22 ?23 0 24 6 0 0 1 18 10 637 0 23 0 25 7 ?1 17 23 0 26 27 28 10 29 9
 0 30 +18 25 634 0 31 10 32 20 ?1 17 31 0 33 34 30 25 35 36 0 37 +18 32 625 0 38
 25 39 40 ?1 29 20 636 0 25 40 7 -.125 -.037 -.018 29 40 627 0 32 41 20 -.112 -.
05 -.018 29 41 624 0 39 42 40 -.112 -.05 0 18 39 621 0 29 32 43 41 ?1 29 42 574
 0 43 44 41 -.068 -.05 -.018 18 43 572 0 45 39 46 42 ?1 29 44 571 0 46 47 42 -.0
68 -.05 0 18 46 568 0 48 43 49 44 ?1 29 47 561 0 49 50 44 -.055 -.037 -.018 18 4
9 559 0 51 46 52 47 ?1 29 50 558 0 52 53 47 -.055 -.037 0 18 52 555 0 54 49 55 5
0 ?1 29 53 508 0 55 56 50 -.055 .037 -.018 18 55 506 0 57 52 58 53 ?1 29 56 505
 0 58 59 53 -.055 .037 0 18 58 502 0 60 55 61 56 ?1 29 59 495 0 61 62 56 -.068 .
05 -.018 18 61 493 0 63 58 64 59 ?1 29 62 492 0 64 65 59 -.068 .05 0 18 64 489 0
 66 61 67 62 ?1 29 65 442 0 67 68 62 -.112 .05 -.018 18 67 440 0 69 64 70 65 ?1
 29 68 439 0 70 71 65 -.112 .05 0 18 70 436 0 72 67 73 68 ?1 29 71 429 0 73 74 6
8 -.125 .037 -.018 18 73 427 0 75 70 76 71 ?1 29 74 426 0 76 77 71 -.125 .037 0
 18 76 423 0 78 73 79 74 ?1 29 77 246 0 79 80 74 .1 -.0325 0 18 79 244 0 81 76 8
2 77 ?1 29 80 58 0 83 84 77 .15 .15 0 18 83 49 0 85 86 87 80 ?1 29 84 59 0 87 88
 80 .15 -.15 0 18 87 50 0 89 83 90 84 ?1 29 88 60 0 90 91 84 -.15 -.15 0 18 90 5
1 0 92 87 93 88 ?1 29 91 61 0 93 94 88 -.15 .15 0 18 93 52 0 95 90 96 91 ?1 29 9
4 20 0 82 97 91 .15 .15 -.03175 18 82 17 0 98 79 99 94 ?1 29 97 14 0 99 100 94 .
15 -.15 -.03175 18 99 11 0 101 82 102 97 ?1 29 100 8 0 102 103 97 -.15 -.15 -.03
175 18 102 5 0 104 99 86 100 ?1 29 103 4 0 86 105 100 -.15 .15 -.03175 18 86 2 0
 106 102 83 103 ?1 29 105 395 0 96 107 103 .15 .0325 -.018 18 96 304 0 108 93 10
9 105 ?1 29 107 396 0 109 110 105 .15 .0325 0 18 109 314 0 111 96 112 107 ?1 29
 110 397 0 112 113 107 .15 -.0325 -.018 18 112 313 0 114 109 115 110 ?1 29 113 3
98 0 115 116 110 .15 -.0325 0 18 115 305 0 117 112 118 113 ?1 29 116 401 0 119 1
20 113 .1 .0325 0 18 119 315 0 121 122 0 116 ?1 29 120 404 0 118 123 116 .1 -.03
25 -.018 18 118 312 0 124 115 122 120 ?1 29 123 405 0 122 0 120 .1 .0325 -.018 1
8 122 310 0 125 118 119 123 ?1 17 125 0 126 127 108 122 128 129 0 130 +15 126 36
6 0 125 131 0 17 127 0 126 132 125 118 133 134 0 135 +17 108 0 126 125 132 96 13
6 137 0 128 -17 128 0 138 111 130 96 125 129 0 139 -16 129 282 140 ?125 134 141
 142 0 0 1 17 130 0 138 128 121 122 143 144 0 133 -15 138 349 0 111 145 0 17 121
 0 138 130 111 119 146 147 0 143 +17 143 0 148 81 133 119 130 144 0 149 +16 144
 290 150 ?143 151 152 153 0 0 1 17 133 0 148 143 124 122 127 134 0 0 -15 148 355
 0 81 154 0 17 124 0 148 133 81 118 155 152 0 127 -16 134 291 156 ?127 157 129 1
58 0 0 1 81 1 156 1718 159 134 0 0 160 161 162 16 157 293 163 ?132 152 134 164 0
 0 1 31 158 393 0 134 142 164 0 +.1 0 -.018 0 0 1 1 0 0 .0325 30 142 394 0 129 1
65 158 0 +.189911975435005 .0325 -.018 -1 0 0 30 164 392 0 157 158 166 0 +.1 -.0
325 -.018 1 0 0 30 166 390 0 147 164 167 0 +.189911975435005 .0325 0 -1 0 0 16 1
47 272 168 ?121 169 170 166 0 0 1 31 167 389 0 169 166 171 0 +.1 0 0 0 0 1 1 0 0
 .0325 16 169 298 172 ?81 141 147 167 0 0 1 30 171 388 0 141 167 173 0 +.1 -.032
5 0 1 0 0 16 141 301 174 ?117 129 169 171 0 0 1 30 173 385 0 152 171 153 0 +.1 -
.0325 -.018 0 0 1 16 152 292 175 ?155 144 157 173 0 0 1 30 153 384 0 144 173 176
 0 +.1 .0325 -.018 0 0 1 30 176 382 0 151 153 177 0 +.15 -.0325 -.03175 0 0 -1 1
6 151 284 178 ?114 179 144 176 0 0 1 30 177 381 0 179 176 180 0 +.15 .0325 -.031
75 0 0 1 16 179 283 181 ?111 182 151 177 0 0 1 30 180 218 0 183 177 184 0 +-.125
 .05 -.018 0 -1 0 16 183 428 185 ?37 186 187 180 0 0 1 30 184 217 0 186 180 188
 0 +-.125 -.05 -.018 1 0 0 16 186 626 189 ?45 190 183 184 0 0 1 30 188 216 0 190
 184 191 0 +-.055 -.05 -.018 0 1 0 16 190 560 192 ?57 193 186 188 0 0 1 30 191 2
15 0 187 188 194 0 +-.055 .05 -.018 -1 0 0 16 187 494 195 ?69 183 196 191 0 0 1
 30 194 214 0 197 191 198 0 +-.125 .05 0 0 -1 0 16 197 424 199 ?30 200 182 194 0
 0 1 30 198 213 0 200 194 201 0 +-.125 -.05 0 1 0 0 16 200 622 202 ?48 196 197 1
98 0 0 1 30 201 212 0 196 198 203 0 +-.055 -.05 0 0 1 0 16 196 556 204 ?60 187 2
00 201 0 0 1 30 203 211 0 182 201 205 0 +-.055 .05 0 -1 0 0 16 182 490 206 ?72 1
97 179 203 0 0 1 30 205 7 0 207 203 208 0 +-.15 .15 -.03175 0 -1 0 16 207 6 209
 ?210 211 212 205 0 0 1 30 208 13 0 211 205 213 0 +-.15 -.15 -.03175 1 0 0 16 21
1 12 214 ?215 216 207 208 0 0 1 30 213 19 0 216 208 217 0 +.15 -.15 -.03175 0 1
 0 16 216 18 218 ?219 220 211 213 0 0 1 30 217 24 0 212 213 221 0 +.15 .15 -.031
75 -1 0 0 16 212 23 222 ?223 207 224 217 0 0 1 30 221 57 0 225 217 226 0 +-.15 .
15 0 0 -1 0 16 225 43 227 ?228 229 193 221 0 0 1 30 226 56 0 229 221 230 0 +-.15
 -.15 0 1 0 0 16 229 40 231 ?232 233 225 226 0 0 1 30 230 55 0 224 226 234 0 +.1
5 -.15 0 0 1 0 16 224 37 235 ?236 212 233 230 233 233 1 30 234 54 0 193 230 237
 0 +.15 .15 0 -1 0 0 16 193 46 238 ?239 225 190 234 0 0 1 30 237 74 0 220 234 24
0 0 +.15 .15 -.03175 0 0 1 16 220 62 241 ?242 243 216 237 0 0 1 30 240 75 0 243
 237 244 0 +.15 -.15 -.03175 0 0 1 16 243 63 245 ?89 246 220 240 0 0 1 30 244 76
 0 246 240 247 0 +-.15 -.15 -.03175 0 0 1 16 246 64 248 ?92 249 243 244 0 0 1 30
 247 77 0 249 244 250 0 +-.15 .15 -.03175 0 0 1 16 249 65 251 ?95 137 246 247 0
 0 1 30 250 264 0 137 247 252 0 +.15 -.15 -.018 0 -1 0 16 137 262 253 ?136 254 2
49 250 0 0 1 30 252 432 0 254 250 255 0 +-.125 .037 0 0 0 1 16 254 430 256 ?257
 258 137 252 0 0 1 30 255 445 0 258 252 259 0 --.112 .05 -.018 0 0 1 16 258 443
 260 ?261 262 254 255 0 0 1 31 259 451 0 262 255 263 0 +-.112 .037 -.018 0 0 1 1
 0 0 .013 16 262 449 264 ?75 265 258 259 0 0 1 31 263 460 0 265 259 266 0 --.112
 .037 0 0 0 1 1 0 0 .013 16 265 455 267 ?268 269 262 263 0 0 1 30 266 498 0 269
 263 270 0 +-.068 .05 0 0 0 1 16 269 496 271 ?272 273 265 266 0 0 1 30 270 511 0
 273 266 274 0 --.055 .037 -.018 0 0 1 16 273 509 275 ?276 277 269 270 0 0 1 31
 274 517 0 277 270 278 0 +-.068 .037 -.018 0 0 1 1 0 0 .013 16 277 515 161 ?63 2
79 273 274 0 0 1 31 278 526 0 279 274 280 0 --.068 .037 0 0 0 1 1 0 0 .013 16 27
9 521 281 ?282 283 277 278 0 0 1 30 280 564 0 283 278 284 0 +-.055 -.037 0 0 0 1
 16 283 562 285 ?286 287 279 280 0 0 1 30 284 577 0 287 280 288 0 --.068 -.05 -.
018 0 0 1 16 287 575 289 ?290 291 283 284 0 0 1 31 288 583 0 291 284 292 0 +-.06
8 -.037 -.018 0 0 1 1 0 0 .013 16 291 581 293 ?51 294 287 288 0 0 1 31 292 592 0
 294 288 295 0 --.068 -.037 0 0 0 1 1 0 0 .013 16 294 587 296 ?297 298 291 292 0
 0 1 30 295 630 0 298 292 299 0 +-.112 -.05 0 0 0 1 16 298 628 300 ?301 36 294 2
95 0 0 1 30 299 643 0 36 295 19 0 --.125 -.037 -.018 0 0 1 16 36 641 160 ?31 24
 298 299 0 0 1 31 19 649 0 24 299 6 0 +-.112 -.037 -.018 0 0 1 1 0 0 .013 16 24
 647 302 ?38 9 36 19 0 0 1 81 1 302 1736 159 24 0 0 202 163 303 17 38 0 304 45 3
7 32 305 24 0 306 +15 304 193 0 37 307 0 17 45 0 304 51 38 43 306 186 0 290 +17
 37 0 304 38 75 25 34 183 0 305 +17 305 0 308 35 309 25 38 24 0 0 -17 306 0 310
 301 290 32 45 186 0 309 -15 310 182 0 306 311 0 17 301 0 310 48 306 39 309 298
 0 28 +17 290 0 310 306 48 43 312 287 0 313 +17 309 0 308 305 29 32 301 298 0 0
 -15 308 667 0 305 17 0 17 29 0 308 309 35 39 23 9 0 301 -17 35 0 308 29 305 10
 31 36 0 0 -14 17 666 314 ?315 316 308 4 5 -0 0 315 316 21 81 1 314 1753 159 17
 317 0 318 319 320 14 315 721 321 ?322 17 323 4 324 -0 0 322 17 21 14 316 600 32
5 ?17 326 327 4 18 -0 0 17 326 21 13 21 82 0 0 0 0 0 0 8 15 14 15 1450 328 ?329
 0 330 4 331 -0 0 329 0 21 81 1 328 1757 159 15 332 0 333 334 335 14 329 1444 33
6 ?337 15 338 4 339 -0 0 337 15 21 15 330 25 0 340 15 341 50 331 29 0 15 342 343
 0 +-.15 .15 -.03175 0 0 1 1 0 0 50 342 201 0 344 345 331 0 +-.055 .05 -.018 0 1
 0 0 0 1 50 343 53 0 337 331 346 0 +-.15 .15 0 0 0 1 1 0 0 14 337 35 347 ?348 32
9 26 4 343 +0 0 348 329 21 50 346 78 0 349 343 350 0 +.15 -.15 -.03175 1 0 0 0 0
 -1 14 349 67 333 ?344 351 352 4 346 +0 0 344 351 21 50 350 79 0 351 346 353 0 +
-.15 -.15 -.03175 0 -1 0 0 0 -1 14 351 69 354 ?349 355 356 4 350 +0 0 349 355 21
 50 353 80 0 355 350 357 0 +-.15 .15 -.03175 -1 0 0 0 0 1 14 355 71 358 ?351 348
 359 4 353 +0 0 351 348 21 50 357 81 0 348 353 360 0 +.15 .15 -.03175 0 1 0 0 0
 1 14 348 73 361 ?355 337 362 4 357 +0 0 355 337 21 51 360 480 0 363 357 364 0 +
-.112 .037 -.018 0 0 -1 .013 -1 0 0 14 363 468 365 ?326 131 366 4 360 -0 0 326 1
31 21 51 364 546 0 326 360 18 0 +-.068 .037 -.018 0 0 -1 .013 -1 0 0 14 326 534
 367 ?316 363 368 4 364 -0 0 316 363 21 51 18 612 0 316 364 5 0 +-.068 -.037 -.0
18 0 0 -1 .013 -1 0 0 81 1 367 1761 159 326 369 0 370 371 372 15 368 535 0 373 3
26 0 17 373 0 368 374 375 55 63 277 0 0 -17 374 0 368 66 373 58 276 273 0 0 -17
 375 0 368 373 66 61 272 269 0 0 -17 63 0 304 69 57 61 373 277 0 376 +17 69 0 30
4 75 63 67 376 187 0 261 +17 57 0 304 63 51 55 377 190 0 276 +17 376 0 378 272 2
61 61 69 187 0 375 -15 378 170 0 376 344 0 17 272 0 378 72 376 64 375 269 0 379
 +17 261 0 378 376 72 67 380 258 0 381 +17 72 0 378 261 272 70 379 182 0 268 +17
 380 0 366 78 381 70 261 258 0 0 -17 381 0 366 380 382 67 75 262 0 0 -15 366 469
 0 381 363 0 17 382 0 366 381 78 73 257 254 0 0 -17 75 0 304 37 69 73 381 262 0
 34 +17 34 0 33 257 31 73 37 183 0 382 -15 33 176 0 30 383 0 17 257 0 33 30 34 7
6 382 254 0 27 +17 30 0 33 31 257 10 27 197 0 35 +17 27 0 26 268 23 76 30 197 0
 0 -15 26 131 0 379 337 384 17 268 0 26 379 27 70 78 265 0 380 +17 379 0 26 282
 268 64 72 182 0 0 -17 78 0 366 382 380 76 268 265 0 257 -17 282 0 26 385 379 58
 66 279 0 374 +17 385 0 26 297 282 52 60 196 0 0 -17 66 0 368 375 374 64 282 279
 0 272 -17 297 0 26 28 385 46 54 294 0 312 +17 60 0 386 276 286 58 385 196 0 282
 +15 386 188 0 377 387 0 17 276 0 386 377 60 55 374 273 0 373 +17 286 0 386 60 3
77 52 388 283 0 385 +17 377 0 386 286 276 49 57 190 0 388 -17 388 0 327 313 54 4
9 286 283 0 0 -15 327 601 0 313 316 0 17 313 0 327 312 388 43 51 291 0 0 -17 54
 0 327 388 312 52 297 294 0 286 -17 312 0 327 54 313 46 290 287 0 0 -17 51 0 304
 57 45 49 313 291 0 377 +14 387 183 389 ?307 311 386 4 390 -0 0 307 311 21 81 1
 389 1767 159 387 391 0 361 392 393 14 307 189 394 ?145 387 304 4 395 +0 0 145 3
87 21 14 311 177 396 ?387 383 310 4 397 -0 0 387 383 21 50 390 204 0 387 395 397
 0 +-.055 -.05 -.018 1 0 0 0 0 -1 50 395 206 0 307 398 390 0 +-.125 .05 -.018 0
 0 1 1 0 0 50 397 203 0 311 390 345 0 +-.125 -.05 -.018 0 -1 0 0 0 -1 50 345 202
 0 383 397 342 0 +-.125 .05 -.018 -1 0 0 0 0 1 14 383 171 371 ?311 344 33 4 345
 -0 0 311 344 21 81 1 371 1762 159 383 399 0 367 400 401 14 344 165 402 ?383 349
 378 4 342 -0 0 383 349 21 81 1 402 1778 159 344 403 0 365 404 405 80 1 159 406
 407 9000 1 1 1 1 1 1 1 1 0 FFFFTFTFFFFFFF3 81 1 403 1520 408 344 409 402 410 39
9 411 81 1 365 1777 159 363 412 0 321 402 413 81 1 404 1779 159 414 415 0 402 41
6 417 84 32 405 8e6f6a73406f5bd97acb4ecbd5fd1e6e14 414 977 404 ?418 419 420 4 42
1 -0 0 418 419 21 81 1 415 1560 408 414 422 404 423 424 425 81 1 416 1780 159 42
6 427 0 404 428 429 84 32 417 cfddc12aa11d011d3a7d8383379c19e114 426 774 416 ?43
0 322 431 4 432 -0 0 430 322 21 81 1 427 1550 408 426 433 416 434 435 436 81 1 4
28 1781 159 437 438 0 416 0 439 84 32 429 e56cf0da1be99a6d855e4100e13febf614 437
 1291 428 ?440 441 442 4 443 -0 0 440 441 21 81 1 438 1574 408 437 444 428 445 4
46 447 84 32 439 a4f1fb1b7a54d7818c3e7e7a1421613980 1 408 448 449 8015 0 0 0 0 3
 5 0 0 0 FFFFTFFFFFFFFF2 81 1 444 1573 450 437 451 438 452 453 454 81 1 445 1572
 408 441 452 370 455 438 456 81 1 446 1576 408 440 453 457 438 458 459 83 1 447
 0 14 440 1359 457 ?460 437 461 4 462 -0 0 460 437 21 81 1 453 1575 450 440 463
 446 444 464 465 81 1 457 1765 159 440 446 0 466 361 467 81 1 458 1578 408 460 4
64 468 446 469 470 83 1 459 0 14 460 1408 468 ?471 440 472 4 473 +0 0 471 440 21
 81 1 464 1577 450 460 474 458 453 475 476 81 1 468 1748 159 460 458 0 477 336 4
78 81 1 469 1580 408 471 475 479 458 0 480 83 1 470 0 14 471 1471 479 ?0 460 481
 4 482 +0 0 0 460 21 81 1 475 1579 450 471 483 469 464 0 484 81 1 479 1771 159 4
71 469 0 485 486 487 83 1 480 0 81 1 485 1770 159 488 489 0 325 479 490 81 1 486
 1772 159 491 492 0 479 354 493 84 32 487 39059506e43a3dc4fa3ffd3664747e1514 491
 356 486 ?131 154 494 4 495 -0 0 131 154 21 81 1 492 1534 408 491 496 486 497 49
8 499 81 1 354 1773 159 351 500 0 486 501 502 84 32 493 44ca6e6f8455a5852cab3e23
33c70b7981 1 500 1516 408 351 503 354 504 410 505 81 1 501 1774 159 145 506 0 35
4 507 508 84 32 502 b5a347613a219035d5492ec11623de5414 145 344 501 ?154 307 138
 4 398 -0 0 154 307 21 81 1 506 1530 408 145 509 501 510 497 511 81 1 507 1775 1
59 512 455 0 501 321 513 84 32 508 a1de9f0204c3a16442d54f8ce8e286d614 512 1154 5
07 ?441 514 515 4 516 -0 0 441 514 21 81 1 455 1570 408 512 517 507 518 445 519
 81 1 321 1776 159 315 520 0 507 365 521 84 32 513 4930398601e1307b1a98d9e9afff7
39181 1 520 1546 408 315 522 321 317 434 523 84 32 521 dc4fe43ea7154ee2c4ec47afc
15a76f281 1 522 1545 450 315 524 520 525 526 527 81 1 317 1544 408 17 525 314 52
8 520 529 81 1 434 1548 408 322 526 530 520 427 531 83 1 523 0 14 322 764 530 ?4
26 315 532 4 533 -0 0 426 315 21 81 1 526 1547 450 322 534 434 522 433 535 81 1
 530 1759 159 322 434 0 334 370 536 83 1 531 0 81 1 334 1758 159 154 497 0 328 5
30 537 81 1 370 1760 159 441 445 0 530 367 538 84 32 536 64a70625f2d0512526b3461
4026f7b5914 441 1223 370 ?437 512 539 4 540 -0 0 437 512 21 84 32 538 aabdcb7ffd
7b6c722021e111f51982fe15 539 1228 0 541 441 542 51 540 1242 0 441 443 516 0 +.1
 .115 -.425450423081233 0 0 1 .011 1 0 0 51 443 1310 0 437 462 540 0 +.1 -.115 -
.425450423081233 0 0 1 .011 1 0 0 51 516 1173 0 512 540 543 0 +-.1 .115 -.425450
423081233 0 0 1 .011 1 0 0 50 543 1104 0 544 516 545 0 +-.13 -.13 -.008 0 0 -1 -
1 0 0 14 544 1083 392 ?514 546 547 4 543 -0 0 514 546 21 51 545 1103 0 514 543 5
48 0 +-.13 -.13 0 0 0 -1 .0085 0 -1 0 14 514 1093 318 ?512 544 549 4 545 -0 0 51
2 544 21 51 548 1059 0 546 545 421 0 +-.13 -.13 -.433450423081233 0 0 1 .0045 1
 0 0 14 546 1040 550 ?544 418 551 4 548 -0 0 544 418 21 50 421 998 0 414 548 552
 0 +.13 -.13 -.008 0 0 -1 -1 0 0 51 552 997 0 418 421 553 0 +.13 -.13 0 0 0 -1 .
0085 0 -1 0 14 418 987 400 ?546 414 554 4 552 -0 0 546 414 21 51 553 953 0 419 5
52 555 0 +.13 -.13 -.433450423081233 0 0 1 .0045 1 0 0 14 419 934 319 ?414 488 5
56 4 553 -0 0 414 488 21 50 555 892 0 557 553 558 0 +.13 .13 -.008 0 0 -1 -1 0 0
 14 557 871 477 ?488 430 559 4 555 -0 0 488 430 21 51 558 891 0 488 555 560 0 +.
13 .13 0 0 0 -1 .0085 0 -1 0 14 488 881 485 ?419 557 561 4 558 -0 0 419 557 21 5
1 560 847 0 430 558 533 0 +.13 .13 -.433450423081233 0 0 1 .0045 1 0 0 14 430 82
8 466 ?557 426 562 4 560 -0 0 557 426 21 50 533 785 0 322 560 432 0 +-.13 .13 -.
008 0 0 -1 -1 0 0 51 432 784 0 426 533 324 0 +-.13 .13 0 0 0 -1 .0085 0 -1 0 51
 324 740 0 315 432 563 0 +-.13 .13 -.433450423081233 0 0 1 .0045 1 0 0 50 563 37
9 0 131 324 495 0 +.1 0 -.018 0 0 1 1 0 0 14 131 362 564 ?363 491 126 4 563 +0 0
 363 491 21 50 495 377 0 491 563 565 0 +.1 -.0325 -.018 0 -1 0 0 0 -1 51 565 376
 0 154 495 398 0 +.1 0 -.018 0 0 1 .0325 1 0 0 14 154 350 334 ?491 145 148 4 565
 -0 0 491 145 21 50 398 375 0 145 565 395 0 +.189911975435005 .0325 -.018 0 1 0
 0 0 1 81 1 564 1755 159 131 498 0 319 333 566 81 1 498 1536 408 131 567 564 492
 412 568 81 1 319 1754 159 419 423 0 314 564 569 81 1 333 1756 159 349 410 0 564
 328 570 84 32 566 5e4736d120ebd1ceb822b50f843cc84d81 1 410 1518 408 349 571 333
 500 403 572 84 32 570 a913b395caed1cb8ac268d2567798f0c81 1 571 1517 450 349 573
 410 503 409 574 83 1 572 0 80 1 450 0 575 8001 0 0 0 0 3 5 0 0 0 FFFFTFTFFFFFFF
2 81 1 573 412 576 349 577 571 578 579 0 81 1 503 1515 450 351 578 500 580 571 5
81 81 1 409 1519 450 344 582 403 571 583 584 83 3 574 .717647058823529 .81174944
6860456 .764705882352941 81 1 582 689 576 344 585 409 586 587 0 81 1 583 1521 45
0 383 587 399 409 588 589 83 3 584 .717647058823529 .811749446860456 .7647058823
52941 81 1 587 690 576 383 590 583 582 591 0 81 1 399 1522 408 383 583 371 403 5
92 593 81 1 588 1523 450 311 591 592 583 594 595 83 3 589 .717647058823529 .8117
49446860456 .764705882352941 81 1 591 691 576 311 596 588 587 597 0 81 1 592 152
4 408 311 588 396 399 391 598 81 1 594 1525 450 387 597 391 588 599 600 83 3 595
 .717647058823529 .811749446860456 .764705882352941 81 1 597 692 576 387 601 594
 591 602 0 81 1 391 1526 408 387 594 389 592 510 603 81 1 599 1527 450 307 602 5
10 594 509 604 83 3 600 .717647058823529 .811749446860456 .764705882352941 81 1
 602 693 576 307 605 599 597 606 0 81 1 510 1528 408 307 599 394 391 506 607 81
 1 509 1529 450 145 579 506 599 608 609 83 3 604 .717647058823529 .8117494468604
56 .764705882352941 81 1 579 414 576 145 610 509 573 611 0 81 1 608 1531 450 154
 611 497 509 496 612 83 3 609 .717647058823529 .811749446860456 .764705882352941
 81 1 611 415 576 154 613 608 579 614 0 81 1 497 1532 408 154 608 334 506 492 61
5 81 1 496 1533 450 491 614 492 608 567 616 83 3 612 .717647058823529 .811749446
860456 .764705882352941 81 1 614 416 576 491 617 496 611 586 0 81 1 567 1535 450
 131 586 498 496 618 619 83 3 616 .717647058823529 .811749446860456 .76470588235
2941 81 1 586 417 576 131 620 567 614 582 0 81 1 618 1537 450 363 606 412 567 62
1 622 83 3 619 .717647058823529 .811749446860456 .764705882352941 81 1 606 694 5
76 363 623 618 602 624 0 81 1 412 1538 408 363 618 365 498 369 625 81 1 621 1539
 450 326 624 369 618 626 627 83 3 622 .717647058823529 .811749446860456 .7647058
82352941 81 1 624 695 576 326 628 621 606 629 0 81 1 369 1540 408 326 621 367 41
2 528 630 81 1 626 1541 450 316 629 528 621 525 631 83 3 627 .717647058823529 .8
11749446860456 .764705882352941 81 1 629 696 576 316 632 626 624 633 0 81 1 528
 1542 408 316 626 325 369 317 634 81 1 525 1543 450 17 633 317 626 522 635 83 3
 631 .717647058823529 .811749446860456 .764705882352941 81 1 633 697 576 17 636
 525 629 524 0 83 3 635 .717647058823529 .811749446860456 .764705882352941 80 1
 576 637 638 9000 1 1 1 1 1 1 1 1 0 FFFFTFTTFFFFFF1 81 1 636 685 637 17 0 633 63
2 639 640 81 1 524 799 576 315 641 522 633 534 0 81 5 641 793 642 315 639 524 0
 643 644 645 646 647 648 81 1 534 800 576 322 649 526 524 650 0 81 1 649 761 637
 322 0 534 639 651 652 81 1 650 801 576 426 651 433 534 653 0 81 1 651 776 637 4
26 0 650 649 654 655 81 1 433 1549 450 426 650 427 526 656 657 81 1 653 906 576
 430 643 656 650 658 0 81 5 643 900 642 430 654 653 641 659 660 661 662 663 664
 81 1 656 1551 450 430 653 435 433 665 666 81 1 658 907 576 557 667 665 653 668
 0 81 1 667 868 637 557 0 658 654 669 670 81 1 665 1553 450 557 658 671 656 672
 673 81 1 668 908 576 488 669 672 658 674 0 81 1 669 883 637 488 0 668 667 675 6
76 81 1 672 1555 450 488 668 489 665 677 678 81 1 674 1012 576 419 659 677 668 6
79 0 81 5 659 1006 642 419 675 674 643 680 681 682 683 684 685 81 1 677 1557 450
 419 674 423 672 422 686 81 1 679 1013 576 414 687 422 674 688 0 81 1 687 974 63
7 414 0 679 675 689 690 81 1 422 1559 450 414 679 415 677 691 692 81 1 688 1014
 576 418 689 691 679 693 0 81 1 689 989 637 418 0 688 687 694 695 81 1 691 1561
 450 418 688 424 422 696 697 81 1 693 1118 576 546 680 696 688 698 0 81 5 680 11
12 642 546 694 693 659 699 700 701 702 703 704 81 1 696 1563 450 546 693 705 691
 706 707 81 1 698 1119 576 544 708 706 693 709 0 81 1 708 1080 637 544 0 698 694
 710 711 81 1 706 1565 450 544 698 712 696 713 714 81 1 709 1120 576 514 710 713
 698 715 0 81 1 710 1095 637 514 0 709 708 716 717 81 1 713 1567 450 514 709 518
 706 517 718 81 1 715 1188 576 512 699 517 709 719 0 81 5 699 1181 642 512 716 7
15 680 720 721 722 723 0 724 81 1 517 1569 450 512 715 455 713 452 725 81 1 719
 1257 576 441 720 452 715 451 0 81 5 720 1250 642 441 726 719 699 727 728 729 73
0 0 731 81 1 452 1571 450 441 719 445 517 444 732 81 1 451 1325 576 437 727 444
 719 463 0 81 5 727 1318 642 437 733 451 720 734 735 736 737 0 738 81 1 463 1393
 576 440 734 453 451 739 0 81 5 734 1386 642 440 740 463 727 0 741 742 743 0 744
 81 1 739 1437 576 337 745 746 463 474 0 81 1 745 1401 637 337 0 739 740 747 748
 81 1 746 1509 450 337 739 749 750 751 752 81 1 474 1438 576 460 747 464 739 753
 0 81 1 747 1409 637 460 0 474 745 754 755 81 1 753 1502 576 15 756 757 474 758
 0 81 1 756 1451 637 15 0 753 754 759 760 81 1 757 1505 450 15 753 332 0 750 761
 81 1 758 1503 576 329 754 750 753 483 0 81 1 754 1445 637 329 0 758 747 756 762
 81 1 750 1507 450 329 758 763 757 746 764 81 1 483 1504 576 471 759 475 758 0 0
 81 1 759 1472 637 471 0 483 756 0 765 80 1 637 766 767 9000 0 0 0 0 3 6 0 0 0 F
FFFTFFFFFFFFF1 82 1 765 1392 79 23 767 SolidEdge/MNKR_ATTR_CID81 1 763 1508 408
 329 750 336 332 749 768 83 3 764 .717647058823529 .811749446860456 .76470588235
2941 81 1 336 1749 159 329 763 0 468 358 769 81 1 332 1506 408 15 757 328 0 763
 770 81 1 749 1510 408 337 746 347 763 771 772 83 1 768 0 81 1 347 1744 159 337
 749 0 773 396 774 81 1 771 1512 408 348 751 361 749 504 775 83 1 772 0 81 1 751
 1511 450 348 776 771 746 580 777 81 1 361 1766 159 348 771 0 457 389 778 81 1 5
04 1514 408 355 580 358 771 500 779 83 1 775 0 81 1 580 1513 450 355 780 504 751
 503 781 81 1 358 1750 159 355 504 0 336 394 782 83 1 779 0 81 1 394 1751 159 30
7 510 0 358 318 783 84 32 782 d5fd96bde68e9e60c7d3ffc8a6f4088381 1 318 1752 159
 514 518 0 394 314 784 84 32 783 2ce616663216a0c4028ce9dbe76715a481 1 518 1568 4
08 514 713 318 712 455 785 84 32 784 1d7cd2a84ac1feb2aabdb08d083d981e81 1 712 15
66 408 544 706 392 705 518 786 83 1 785 0 81 1 392 1768 159 544 712 0 389 325 78
7 81 1 705 1564 408 546 696 550 424 712 788 83 1 786 0 81 1 550 1746 159 546 705
 0 396 477 789 81 1 424 1562 408 418 691 400 415 705 790 83 1 788 0 81 1 400 176
3 159 418 424 0 371 466 791 83 1 790 0 81 1 466 1764 159 430 435 0 400 457 792 8
4 32 791 3ae36b1b46540e5c0285149825c84bf381 1 435 1552 408 430 656 466 427 671 7
93 84 32 792 ff35cd51a2a433287ee5b0200301c38981 1 671 1554 408 557 665 477 435 4
89 794 83 1 793 0 81 1 477 1747 159 557 671 0 550 468 795 81 1 489 1556 408 488
 672 485 671 423 796 83 1 794 0 81 1 423 1558 408 419 677 319 489 415 797 83 1 7
96 0 83 1 797 0 84 32 795 c25058a9ff728916b48e5b6edd9d92ae81 1 396 1745 159 311
 592 0 347 550 798 84 32 789 df0048eea69b1966e595ea40c58f44db84 32 798 0ca29283d
0dba719f4ca617ee328e1db81 1 325 1769 159 316 528 0 392 485 799 84 32 787 4892c63
7e236ba4a0641824417287e9b84 32 799 2b8d2f9ff5f655db13994d284470550481 1 780 109
 576 355 800 580 776 578 0 83 3 781 .717647058823529 .811749446860456 .764705882
352941 81 1 800 102 637 355 0 780 801 802 803 81 1 776 108 576 348 802 751 0 780
 0 81 1 578 110 576 351 801 503 780 573 0 81 1 801 98 637 351 0 578 577 800 804
 81 1 577 94 637 349 0 573 0 801 805 82 1 804 402 82 1 805 402 81 1 802 106 637
 348 0 776 800 585 806 81 1 585 166 637 344 0 582 802 590 807 82 1 806 402 81 1
 590 172 637 383 0 587 585 596 808 82 1 807 463 81 1 596 178 637 311 0 591 590 6
01 809 82 1 808 463 81 1 601 184 637 387 0 597 596 605 810 82 1 809 463 81 1 605
 190 637 307 0 602 601 610 811 82 1 810 463 81 1 610 345 637 145 0 579 605 613 8
12 82 1 811 463 81 1 613 351 637 154 0 611 610 617 813 82 1 812 856 81 1 617 357
 637 491 0 614 613 620 814 82 1 813 856 81 1 620 363 637 131 0 586 617 623 815 8
2 1 814 856 81 1 623 487 637 363 0 606 620 628 816 82 1 815 856 81 1 628 553 637
 326 0 624 623 632 817 82 1 816 921 81 1 632 619 637 316 0 629 628 636 818 82 1
 817 921 82 1 818 921 82 1 803 402 84 32 778 aea675035ce1a94d9e1c4b54ad0a07e783
 3 777 .717647058823529 .811749446860456 .764705882352941 81 1 773 1743 159 233
 819 0 206 347 820 84 32 774 b38247c0ba07763173a8fc08865f60b016 233 241 773 ?85
 224 229 230 224 224 1 81 1 819 242 766 233 0 773 821 822 823 81 1 206 1742 159
 182 824 0 192 773 825 84 32 820 5b026305392bc956a019eb918368768781 1 824 491 76
6 182 0 206 826 827 828 81 1 192 1741 159 190 0 0 222 206 829 84 32 825 d210f56b
297b8de23dc2a0525551800e81 1 222 1740 159 212 0 0 251 192 830 84 32 829 103409c9
79407c7258579dd29197281081 1 251 1739 159 249 0 0 281 222 831 84 32 830 784deb10
03ee403d376744e3d4ab174f81 1 281 1738 159 279 0 0 163 251 832 84 32 831 b61dc2ac
86613f70a04a31949c52e61c81 1 163 1737 159 157 0 0 302 281 833 84 32 832 b3b34080
f57b7f72bebd8b78a0b17bb184 32 833 9d9e91127fe284303a59c7fd3a9877f880 1 766 834 8
35 9000 0 0 0 0 3 6 0 0 0 FFFFTFTTFFFFFF1 81 1 826 425 766 197 0 199 836 824 837
 81 1 827 557 766 196 0 204 824 838 839 82 1 828 17 81 1 204 1708 159 196 827 0
 231 22 840 81 1 838 623 766 200 0 202 827 841 842 82 1 839 17 81 1 202 1735 159
 200 838 0 227 302 843 81 1 841 792 766 844 0 845 838 846 847 82 1 842 17 16 844
 755 845 ?848 170 849 850 0 0 1 81 1 845 1691 159 844 841 0 851 852 853 81 1 846
 899 766 854 0 855 841 856 857 82 1 847 17 16 854 862 855 ?858 859 860 861 0 0 1
 81 1 855 1673 159 854 846 0 862 863 864 81 1 856 1005 766 865 0 866 846 867 868
 82 1 857 17 16 865 968 866 ?869 870 871 872 0 0 1 81 1 866 1682 159 865 856 0 8
73 874 875 81 1 867 1111 766 876 0 851 856 877 878 82 1 868 17 16 876 1074 851 ?
879 880 881 882 0 0 1 81 1 851 1690 159 876 867 0 883 845 884 81 1 877 1146 766
 885 0 862 867 886 887 82 1 878 17 16 885 1143 862 ?888 889 890 891 0 0 1 81 1 8
62 1672 159 885 877 0 892 855 893 81 1 886 1215 766 894 0 873 877 895 896 82 1 8
87 17 16 894 1212 873 ?897 890 898 899 0 0 1 81 1 873 1681 159 894 886 0 900 866
 901 81 1 895 1283 766 902 0 903 886 904 905 82 1 896 17 16 902 1280 903 ?906 89
8 907 908 0 0 1 81 1 903 1686 159 902 895 0 909 910 911 81 1 904 1351 766 912 0
 883 895 913 914 82 1 905 17 16 912 1348 883 ?915 907 916 917 0 0 1 81 1 883 168
9 159 912 904 0 918 851 919 81 1 913 1406 766 920 0 921 904 922 923 82 1 914 17
 16 920 1404 921 ?924 916 925 926 0 0 1 81 1 921 1694 159 920 913 0 927 928 929
 81 1 922 1462 766 930 0 892 913 0 931 82 1 923 17 16 930 1459 892 ?932 925 0 93
3 0 0 1 81 1 892 1671 159 930 922 0 934 862 935 82 1 931 17 81 1 934 1670 159 87
1 0 0 936 892 937 84 32 935 b7db67e4e6a7946d0dd13cec4bddc38f16 871 969 934 ?938
 865 939 940 0 0 1 81 1 936 1669 159 898 0 0 941 934 942 84 32 937 d98e139cb9d0e
fa70e448c95ec55d16016 898 1278 936 ?943 894 902 944 0 0 1 81 1 941 1668 159 945
 0 0 0 936 946 84 32 942 5737d402eca1c9840e8304d3b13da2a916 945 757 941 ?947 849
 859 948 0 0 1 84 32 946 ee49eed50dc95103ee53a9d6e1a0a7aa17 947 0 949 947 947 0
 950 945 0 0 +16 849 756 900 ?951 844 945 952 0 0 1 16 859 816 909 ?953 945 854
 954 0 0 1 31 948 789 0 945 954 952 0 +-.13 .13 0 0 0 -1 0 -1 0 .0085 31 954 850
 0 859 861 948 0 +.13 .13 -.03175 0 0 1 1 0 0 .0045 31 952 788 0 849 948 850 0 +
-.13 .13 -.008 0 0 1 0 -1 0 .0085 31 850 787 0 844 952 165 0 --.13 .13 -.008 0 0
 -1 -1 0 0 .0045 31 165 743 0 170 850 142 0 +-.13 .13 -.03175 0 0 1 1 0 0 .0045
 16 170 709 955 ?956 147 844 165 0 0 1 81 1 955 1676 159 170 0 0 957 958 959 17
 956 0 341 956 956 0 960 170 0 0 +15 341 699 0 956 15 961 17 960 0 323 960 960 0
 956 170 0 0 -15 323 726 0 960 315 962 15 962 727 0 848 315 0 17 848 0 962 848 8
48 0 963 844 0 0 +17 963 0 964 963 963 0 848 844 0 0 -15 964 763 0 963 322 0 15
 961 806 0 953 15 965 17 953 0 961 953 953 0 966 859 0 0 +15 965 912 0 967 15 96
8 17 967 0 965 967 967 0 969 870 0 0 +15 968 1018 0 970 15 971 17 970 0 968 970
 970 0 972 880 0 0 +15 971 1131 0 973 15 974 17 973 0 971 973 973 0 975 889 0 0
 +15 974 1200 0 976 15 977 17 976 0 974 976 976 0 541 890 0 0 +15 977 1268 0 943
 15 978 17 943 0 977 943 943 0 979 898 0 0 +15 978 1336 0 980 15 981 17 980 0 97
8 980 980 0 982 907 0 0 +15 981 1449 0 983 15 0 17 983 0 981 983 983 0 984 925 0
 0 -17 984 0 481 984 984 0 983 925 0 0 +16 925 1457 874 ?984 920 930 985 0 0 1 8
1 1 874 1683 159 925 0 0 866 986 987 31 985 1493 0 925 933 988 0 -69388939039072
3e-32 0 -.03175 0 0 1 1 0 0 .0069 31 933 1494 0 930 0 985 0 +693889390390723e-32
 0 -.0125 0 0 -1 0 1 0 .0069 31 988 1431 0 916 985 926 0 +693889390390723e-32 0
 -.0125 0 0 -1 0 1 0 .011875 16 916 1407 989 ?990 912 920 988 0 0 1 31 926 1430
 0 920 988 917 0 +693889390390723e-32 0 0 0 0 -1 0 1 0 .011875 31 917 1382 0 912
 926 991 0 +-.1 -.115 0 0 0 1 0 1 0 .011 31 991 1381 0 907 917 908 0 +-.1 -.115
 -.03175 0 0 1 1 0 0 .011 16 907 1346 863 ?980 902 912 991 0 0 1 31 908 1314 0 9
02 991 944 0 +.1 -.115 0 0 0 1 0 1 0 .011 31 944 1313 0 898 908 899 0 +.1 -.115
 -.03175 0 0 1 1 0 0 .011 31 899 1246 0 894 944 992 0 +.1 .115 0 0 0 1 0 1 0 .01
1 31 992 1245 0 890 899 891 0 +.1 .115 -.03175 0 0 1 1 0 0 .011 16 890 1210 852
 ?976 885 894 992 0 0 1 31 891 1177 0 885 992 993 0 +-.1 .115 0 0 0 1 0 1 0 .011
 31 993 1176 0 889 891 994 0 +-.1 .115 -.03175 0 0 1 1 0 0 .011 16 889 1141 986
 ?973 995 885 993 0 0 1 31 994 1108 0 995 993 996 0 +-.13 -.13 0 0 0 -1 0 -1 0 .
0085 16 995 1076 928 ?997 881 889 994 0 0 1 31 996 1107 0 881 994 882 0 +-.13 -.
13 -.008 0 0 1 0 -1 0 .0085 16 881 1075 998 ?999 876 995 996 0 0 1 31 882 1106 0
 876 996 1000 0 --.13 -.13 -.008 0 0 -1 -1 0 0 .0045 31 1000 1062 0 880 882 1001
 0 +-.13 -.13 -.03175 0 0 1 1 0 0 .0045 16 880 1028 957 ?970 939 876 1000 0 0 1
 31 1001 1002 0 939 1000 940 0 +.13 -.13 0 0 0 -1 0 -1 0 .0085 16 939 970 910 ?1
002 871 880 1001 0 0 1 31 940 1001 0 871 1001 872 0 +.13 -.13 -.008 0 0 1 0 -1 0
 .0085 31 872 1000 0 865 940 1003 0 -.13 -.13 -.008 0 0 -1 -1 0 0 .0045 31 1003
 956 0 870 872 1004 0 +.13 -.13 -.03175 0 0 1 1 0 0 .0045 16 870 922 927 ?967 10
05 865 1003 0 0 1 31 1004 896 0 1005 1003 1006 0 +.13 .13 0 0 0 -1 0 -1 0 .0085
 16 1005 864 958 ?1007 860 870 1004 0 0 1 31 1006 895 0 860 1004 861 0 +.13 .13
 -.008 0 0 1 0 -1 0 .0085 16 860 863 918 ?1008 854 1005 1006 0 0 1 31 861 894 0
 854 1006 954 0 -.13 .13 -.008 0 0 -1 -1 0 0 .0045 81 1 918 1688 159 860 0 0 910
 883 1009 17 1008 0 559 1008 1008 0 1010 860 0 0 +15 559 869 0 1008 557 1011 17
 1010 0 561 1010 1010 0 1008 860 0 0 -15 561 887 0 1010 488 1012 15 1012 888 0 1
013 488 0 17 1013 0 1012 1013 1013 0 1007 1005 0 0 -17 1007 0 1014 1007 1007 0 1
013 1005 0 0 +15 1014 856 0 1007 337 1015 15 1015 962 0 1002 337 1016 17 1002 0
 1015 1002 1002 0 1017 939 0 0 +15 1016 1068 0 997 337 1018 17 997 0 1016 997 99
7 0 1019 995 0 0 +15 1018 1125 0 1020 337 1021 17 1020 0 1018 1020 1020 0 888 88
5 0 0 -15 1021 1194 0 1022 337 1023 17 1022 0 1021 1022 1022 0 897 894 0 0 -15 1
023 1262 0 1024 337 1025 17 1024 0 1023 1024 1024 0 906 902 0 0 -15 1025 1330 0
 1026 337 1027 17 1026 0 1025 1026 1026 0 915 912 0 0 -15 1027 1397 0 924 337 0
 17 924 0 1027 924 924 0 1028 920 0 0 +17 1028 0 1029 1028 1028 0 924 920 0 0 -1
5 1029 1414 0 1028 460 0 17 915 0 1030 915 915 0 1026 912 0 0 +15 1030 1365 0 91
5 440 0 17 906 0 1031 906 906 0 1024 902 0 0 +15 1031 1297 0 906 437 0 17 897 0
 542 897 897 0 1022 894 0 0 +15 542 1229 0 897 441 0 17 888 0 1032 888 888 0 102
0 885 0 0 +15 1032 1160 0 888 512 0 17 1019 0 1033 1019 1019 0 997 995 0 0 -15 1
033 1100 0 1019 514 0 17 1017 0 1034 1017 1017 0 1002 939 0 0 -15 1034 994 0 101
7 418 0 15 1011 870 0 1035 557 0 17 1035 0 1011 1035 1035 0 858 854 0 0 -17 858
 0 1036 858 858 0 1035 854 0 0 +15 1036 834 0 858 430 0 81 1 910 1687 159 939 0
 0 903 918 1037 84 32 1009 3edba99d704c3fa58b1af2f68ee9b55a84 32 1037 a816d5f8b0
754fa5b3361bdb82b5bb1a81 1 958 1677 159 1005 0 0 955 989 1038 81 1 989 1678 159
 916 0 0 958 998 1039 84 32 1038 319e723b8eec2a04a2d413325089e2f181 1 998 1679 1
59 881 0 0 989 900 1040 84 32 1039 735e61397a913cacd6e15ad4db92f9ba81 1 900 1680
 159 849 0 0 998 873 1041 84 32 1040 6e8280896bdab0d05112083d099f3d8c84 32 1041
 7be52f26088b22ded208d7038937548981 1 927 1693 159 870 0 0 852 921 1042 81 1 852
 1692 159 890 0 0 845 927 1043 84 32 1042 210bea13a0ceb078bef42f3b3f59614d84 32
 1043 69a7c26aa05d7869bbd9b084485c497981 1 957 1675 159 880 0 0 863 955 1044 81
 1 863 1674 159 907 0 0 855 957 1045 84 32 1044 29b3b3111a8f6ede05cb03451aeee2d5
84 32 1045 bc843d2c2d921abac1b91de32906092d17 999 0 547 999 999 0 1046 881 0 0 +
15 547 1081 0 999 544 1047 17 1046 0 549 1046 1046 0 999 881 0 0 -15 549 1099 0
 1046 514 1033 15 1047 1082 0 1048 544 0 17 1048 0 1047 1048 1048 0 879 876 0 0
 -17 879 0 1049 879 879 0 1048 876 0 0 +15 1049 1046 0 879 546 0 81 1 928 1695 1
59 995 0 0 921 300 1050 81 1 300 1696 159 298 0 0 928 140 1051 84 32 1050 b6b086
0a9a25268505e717483014c9fb81 1 140 1697 159 129 0 0 300 275 1052 84 32 1051 c981
f249eb34868475aa9e40df8176e981 1 275 1698 159 273 0 0 140 245 1053 84 32 1052 33
29c59bf4c1ae7a4f50b4734960660581 1 245 1699 159 243 0 0 275 235 1054 84 32 1053
 ebbe5c7c4ab159f8b122b8a1836ab16e81 1 235 1700 159 224 1055 0 245 185 1056 84 32
 1054 9e7397eab2333857a533a39d647b1c7281 1 1055 39 766 224 0 235 0 1057 1058 81
 1 185 1701 159 183 0 0 235 178 1059 84 32 1056 b9b288ce3681afd2301f0952604375d5
81 1 178 1702 159 151 0 0 185 293 1060 84 32 1059 67c7baf14244beee7aa56bf6a39531
7081 1 293 1703 159 291 0 0 178 172 1061 84 32 1060 f00cda34b5924de8e39a9c47f38f
2b2c81 1 172 1704 159 169 1062 0 293 267 1063 84 32 1061 0f86ae0084d0b0bf200166e
8b63a71c281 1 1062 300 766 169 0 172 822 836 1064 81 1 267 1705 159 265 0 0 172
 218 1065 84 32 1063 d555b1b9b6a07132a3c4810426907a8e81 1 218 1706 159 216 0 0 2
67 231 1066 84 32 1065 cdbf07b187495d03cc74062e2905c86f81 1 231 1707 159 229 105
7 0 218 204 1067 84 32 1066 5d2438564bd6be5f2e2ddf19deb924eb81 1 1057 42 766 229
 0 231 1055 1068 1069 84 32 1067 42a03b4a5ff3d18a353f3fb8c0199bb981 1 1068 45 76
6 225 0 227 1057 821 1070 82 1 1069 17 81 1 227 1734 159 225 1068 0 214 202 1071
 81 1 821 48 766 193 0 238 1068 819 1072 82 1 1070 17 81 1 238 1715 159 193 821
 0 209 199 1073 82 1 1072 17 81 1 209 1714 159 207 0 0 253 238 1074 81 1 199 171
6 159 197 826 0 238 160 1075 84 32 1073 601b7be1f50d5542a6f3deb742d6860d81 1 160
 1717 159 36 0 0 199 156 1076 84 32 1075 16a82545ca0241159153ccf2245675e284 32 1
076 4d80114c7e93e419226e4b2fb49b7e7281 1 253 1713 159 137 0 0 260 209 1077 84 32
 1074 a6062bebf8fe6c9cd26e09759f84978a81 1 260 1712 159 258 0 0 285 253 1078 84
 32 1077 98178c6218ab3bee221e380491efc74a81 1 285 1711 159 283 0 0 175 260 1079
 84 32 1078 85c0525e2c071ad4b752f7ad7b386fc981 1 175 1710 159 152 0 0 22 285 108
0 84 32 1079 96a6c9990c6ea630e08d2763d55c596d81 1 22 1709 159 9 0 0 204 175 1081
 84 32 1080 59666c9d94cb90dda8e105505ae81a5184 32 1081 6e8d61899bf7c9b72d002bf9c
6e17e4181 1 214 1733 159 211 0 0 256 227 1082 84 32 1071 ffd5e6dd45d02fb87dd58ce
59103829b81 1 256 1732 159 254 0 0 264 214 1083 84 32 1082 5997f5d20352bcf320ae9
70432b4c2fa81 1 264 1731 159 262 0 0 168 256 1084 84 32 1083 3283a21032a513b1abe
4581914feb57881 1 168 1730 159 147 822 0 289 264 1085 84 32 1084 9aeacad943134d5
57f713688947ec22181 1 822 296 766 147 0 168 819 1062 1086 81 1 289 1729 159 287
 0 0 150 168 1087 84 32 1085 a30137d9cf3017e66d00c82a7e871a2a81 1 150 1728 159 1
44 0 0 195 289 1088 84 32 1087 9af38eef7fb44020a05d7f24cdcc39fa81 1 195 1727 159
 187 0 0 241 150 1089 84 32 1088 76c6b37aa75ed9817d33ea702c7b08b781 1 241 1726 1
59 220 0 0 271 195 1090 84 32 1089 3a8c231bddf33419f1124ddd5a170d8a81 1 271 1725
 159 269 0 0 174 241 1091 84 32 1090 4cf7c8cf23c39d0194535985a8e00f6181 1 174 17
24 159 141 836 0 296 271 1092 84 32 1091 c273f3fe7f538b48b4e7d03168b9893581 1 83
6 303 766 141 0 174 1062 826 1093 81 1 296 1723 159 294 0 0 181 174 1094 84 32 1
092 5c5d918bc5c06ec18d9a486a7f0d5bc781 1 181 1722 159 179 0 0 189 296 1095 84 32
 1094 b4eb66f9d75436b9cd565f30a8e934c281 1 189 1721 159 186 0 0 248 181 1096 84
 32 1095 da4a201d43572a558596544dc983ca2e81 1 248 1720 159 246 0 0 161 189 1097
 84 32 1096 329f593f62757ba0e5cd64e02b925af281 1 161 1719 159 277 0 0 156 248 10
98 84 32 1097 ea01223104feed5f0f2db557a846f33384 32 1098 e1177fbf4f09047a8d567a8
b8fa0063f82 1 1093 17 82 1 1086 17 82 1 1064 17 82 1 1058 17 81 1 986 1684 159 8
89 0 0 874 909 1099 81 1 909 1685 159 859 0 0 986 903 1100 84 32 1099 758c29f983
12e7a2364075cd2265f21684 32 1100 f92937ff83f8a91dc481215af016ba0f17 990 0 472 99
0 990 0 1101 916 0 0 +15 472 1413 0 990 460 1029 17 1101 0 338 1101 1101 0 990 9
16 0 0 -15 338 1419 0 1101 329 1102 15 1102 1442 0 932 329 0 17 932 0 1102 932 9
32 0 1103 930 0 0 +17 1103 0 1104 1103 1103 0 932 930 0 0 -15 1104 1477 0 1103 4
71 0 84 32 987 3779a7120321910d79cfc75ddbbace3515 481 1476 0 984 471 1104 17 982
 0 461 982 982 0 980 907 0 0 -15 461 1364 0 982 440 1030 17 979 0 442 979 979 0
 943 898 0 0 -15 442 1296 0 979 437 1031 17 541 0 539 541 541 0 976 890 0 0 -17
 975 0 515 975 975 0 973 889 0 0 -15 515 1159 0 975 512 1032 17 972 0 551 972 97
2 0 970 880 0 0 -15 551 1045 0 972 546 1049 17 969 0 556 969 969 0 967 870 0 0 -
15 556 939 0 969 419 1105 15 1105 940 0 869 419 0 17 869 0 1105 869 869 0 1106 8
65 0 0 +17 1106 0 1107 1106 1106 0 869 865 0 0 -15 1107 976 0 1106 414 0 17 966
 0 562 966 966 0 953 859 0 0 -15 562 833 0 966 430 1036 84 32 959 6326856d112466
8ee20b5da3dbe8c9c517 951 0 532 951 951 0 1108 849 0 0 +15 532 762 0 951 322 964
 17 1108 0 431 1108 1108 0 951 849 0 0 -15 431 780 0 1108 426 1109 15 1109 781 0
 950 426 0 17 950 0 1109 950 950 0 947 945 0 0 -15 949 749 0 947 337 1014 17 938
 0 420 938 938 0 1110 871 0 0 +15 420 975 0 938 414 1107 17 1110 0 554 1110 1110
 0 938 871 0 0 -15 554 993 0 1110 418 1034 84 32 929 8393e21f1a205704e68a160806e
c3fcb84 32 919 1972642c52aae067775055e3572fd7eb84 32 911 e1a2c34928e06ae37a0b404
96941098584 32 901 5838e9e7f9dbbbaaf2f7fd6d4b44dcaf84 32 893 82a22814ef37044f87a
6a34ba1eb699384 32 884 fc7db60a699bf511a8fb887153a4a6c384 32 875 4d59c5738955a18
eee9ba1d41889582384 32 864 69f5fa5cb2056c3ba450d0a7490b36da84 32 853 4b1bc213aa4
8e5b508bd25d689e525b184 32 843 63f1fe0bf31e667535cb2874b94ad1f484 32 840 6305146
287d78632d9fcaf0b51dd93d182 1 837 17 79 27 835 SolidEdge/MNKR_ATTR_TYPE_EX82 1 8
23 17 17 85 0 384 239 146 83 1111 233 0 242 +15 384 253 0 146 337 949 17 239 0 3
84 228 85 93 1112 193 0 0 +17 146 0 384 85 149 109 121 147 0 1111 -17 1111 0 352
 139 242 109 85 233 0 0 -17 242 0 352 1111 219 83 98 220 0 1112 +15 352 267 0 13
9 349 0 17 219 0 352 242 101 82 1113 216 0 340 +17 98 0 362 223 1112 82 242 220
 0 219 -17 1112 0 362 98 95 83 239 193 0 0 -15 362 72 0 1112 348 0 17 95 0 362 1
112 223 93 106 249 0 1114 +17 223 0 362 95 98 86 340 212 0 0 +17 106 0 359 210 1
114 86 95 249 0 1115 -17 1114 0 359 106 92 93 228 225 0 239 -15 359 70 0 1114 35
5 0 17 92 0 359 1114 210 90 104 246 0 1116 +17 228 0 384 232 239 90 1114 225 0 0
 +17 232 0 384 236 228 87 1116 229 0 0 +17 236 0 384 1117 232 115 1118 224 0 0 +
17 1116 0 356 104 89 90 232 229 0 228 -15 356 68 0 1116 351 0 17 104 0 356 215 1
116 102 92 246 0 210 -17 89 0 356 1116 215 87 101 243 0 1118 +17 215 0 356 89 10
4 99 1119 211 0 1113 +17 101 0 352 219 1118 99 89 243 0 215 -17 1118 0 352 101 1
120 87 236 224 0 232 -17 1120 0 352 1118 136 115 114 151 0 236 -17 136 0 352 112
0 139 112 108 137 0 0 +17 114 0 494 135 117 112 1120 151 0 132 +15 494 361 0 114
 491 0 17 135 0 494 155 114 118 132 157 0 0 -17 117 0 494 114 155 115 1117 141 0
 1120 +17 132 0 126 108 127 112 135 157 0 136 +17 155 0 494 117 135 79 124 152 0
 1117 +17 1117 0 384 149 236 79 117 141 0 0 -17 149 0 384 146 1117 119 81 169 0
 0 -17 81 0 148 124 143 79 149 169 0 155 +17 139 0 352 136 1111 96 111 179 0 0 -
17 111 0 138 121 128 109 139 179 0 146 +17 1119 0 330 1115 1113 102 215 211 0 0
 -17 1113 0 330 1119 340 99 219 216 0 0 -17 340 0 330 1113 1115 82 223 212 0 0 -
17 1115 0 330 340 1119 86 210 207 0 223 -17 210 0 359 92 106 102 1115 207 0 1119
 +83 1 770 0 84 32 769 f64f87603f6e96a8608548b814bb14b082 1 762 1540 83 3 761 .7
17647058823529 .811749446860456 .764705882352941 82 1 760 402 82 1 755 1540 83 3
 752 .717647058823529 .811749446860456 .764705882352941 81 1 740 1360 637 440 0
 734 733 745 1121 82 1 748 402 81 1 733 1292 637 437 0 727 726 740 1122 82 1 112
1 1702 81 1 726 1224 637 441 0 720 716 733 1123 82 1 1122 1701 81 1 716 1155 637
 512 0 699 710 726 1124 82 1 1123 1700 82 1 1124 1698 80 5 642 576 1125 9000 2 2
 2 2 3 5 0 0 0 FFFFTFFFFFFFFF1 1 2 3 7 82 1 741 5 82 19 742 0 1 0 0 0 0 3 0 1 0
 0 1 2 1 1 1359 0 0 0 83 20 743 .022 .0127 .0127 82 .0127 .0127 0 .0508 2 0 0 0
 0 .1 0 0 0 .04363323129985825 .1 1 87 2 744 -.1 -.115 0 0 0 1 79 28 1125 SolidE
dge/EndHoleThread_info82 1 735 5 82 19 736 0 1 0 0 0 0 3 0 1 0 0 1 2 1 1 1291 0
 0 0 83 20 737 .022 .0127 .0127 82 .0127 .0127 0 .0508 2 0 0 0 0 .1 0 0 0 .04363
323129985825 .1 1 87 2 738 .1 -.115 0 0 0 1 83 3 732 .717647058823529 .811749446
860456 .764705882352941 82 1 728 5 82 19 729 0 1 0 0 0 0 3 0 1 0 0 1 2 1 1 1223
 0 0 0 83 20 730 .022 .0127 .0127 82 .0127 .0127 0 .0508 2 0 0 0 0 .1 0 0 0 .043
63323129985825 .1 1 87 2 731 .1 .115 0 0 0 1 83 3 725 .717647058823529 .81174944
6860456 .764705882352941 82 1 721 5 82 19 722 0 1 0 0 0 0 3 0 1 0 0 1 2 1 1 1154
 0 0 0 83 20 723 .022 .0127 .0127 82 .0127 .0127 0 .0508 2 0 0 0 0 .1 0 0 0 .043
63323129985825 .1 1 87 2 724 -.1 .115 0 0 0 1 83 3 718 .717647058823529 .8117494
46860456 .764705882352941 82 1 717 1220 83 3 714 .717647058823529 .8117494468604
56 .764705882352941 81 1 694 1041 637 546 0 680 689 708 1126 82 1 711 1220 82 1
 1126 1220 83 3 707 .717647058823529 .811749446860456 .764705882352941 82 1 700
 5 82 20 701 2 1 0 4 1 0 3 0 1 0 1 1 2 1 1 1040 1 1093 0 0 83 20 702 .009 .017 .
008 82 .017 .008 0 .0508 2 0 9 7.917 7.773 .1 0 0 0 .04363323129985825 .1 1 84 6
 703 M9 x 187 2 704 -.13 -.13 0 0 0 1 83 3 697 .717647058823529 .811749446860456
 .764705882352941 82 1 695 1219 83 3 692 .717647058823529 .811749446860456 .7647
05882352941 81 1 675 935 637 419 0 659 669 687 1127 82 1 690 1219 82 1 1127 1219
 83 3 686 .717647058823529 .811749446860456 .764705882352941 82 1 681 5 82 20 68
2 2 1 0 4 1 0 3 0 1 0 1 1 2 1 1 934 1 987 0 0 83 20 683 .009 .017 .008 82 .017 .
008 0 .0508 2 0 9 7.917 7.773 .1 0 0 0 .04363323129985825 .1 1 84 6 684 M9 x 187
 2 685 .13 -.13 0 0 0 1 83 3 678 .717647058823529 .811749446860456 .764705882352
941 82 1 676 1218 83 3 673 .717647058823529 .811749446860456 .764705882352941 81
 1 654 829 637 430 0 643 651 667 1128 82 1 670 1218 82 1 1128 1218 83 3 666 .717
647058823529 .811749446860456 .764705882352941 82 1 660 5 82 20 661 2 1 0 4 1 0
 3 0 1 0 1 1 2 1 1 828 1 881 0 0 83 20 662 .009 .017 .008 82 .017 .008 0 .0508 2
 0 9 7.917 7.773 .1 0 0 0 .04363323129985825 .1 1 84 6 663 M9 x 187 2 664 .13 .1
3 0 0 0 1 83 3 657 .717647058823529 .811749446860456 .764705882352941 82 1 655 1
214 81 1 639 722 637 315 0 641 636 649 1129 82 1 652 1214 82 1 1129 1214 82 1 64
4 5 82 20 645 2 1 0 4 1 0 3 0 1 0 1 1 2 1 1 721 1 774 0 0 83 20 646 .009 .017 .0
08 82 .017 .008 0 .0508 2 0 9 7.917 7.773 .1 0 0 0 .04363323129985825 .1 1 84 6
 647 M9 x 187 2 648 -.13 .13 0 0 0 1 82 1 640 921 79 17 638 SolidEdge/Display83
 1 634 0 83 1 630 0 83 1 625 0 83 1 615 0 83 1 607 0 83 1 603 0 83 1 598 0 83 1
 593 0 83 3 581 .717647058823529 .811749446860456 .764705882352941 79 15 575 SDL
/TYSA_COLOUR84 32 569 ef1585e1dae354d2c7b525911498bd8683 1 568 0 51 462 1378 0 4
40 473 443 0 +-.1 -.115 -.425450423081233 0 0 1 .011 1 0 0 51 473 1427 0 460 339
 462 0 -693889390390723e-32 0 -.0125 0 0 1 .011875 1 0 0 50 339 1429 0 329 482 4
73 0 +693889390390723e-32 0 -.0125 0 0 -1 -1 0 0 51 482 1490 0 471 0 339 0 -6938
89390390723e-32 0 -.437950423081233 0 0 1 .0069 1 0 0 84 32 537 be6a59c46fd05a75
33112be5a35ef6d083 3 535 .717647058823529 .811749446860456 .764705882352941 83 1
 529 0 83 3 527 .717647058823529 .811749446860456 .764705882352941 83 1 519 0 83
 1 511 0 83 1 505 0 83 1 499 0 84 32 490 f065a7f36c37cf3fcdd1f3d113b584ad83 3 48
4 .717647058823529 .811749446860456 .764705882352941 84 32 478 cf5066537605e3fca
126ce2694b8af1f83 3 476 .717647058823529 .811749446860456 .764705882352941 84 32
 467 478fda950b3764c1a961e566477093fc83 3 465 .717647058823529 .811749446860456
 .764705882352941 83 1 456 0 83 3 454 .717647058823529 .811749446860456 .7647058
82352941 79 21 449 SDL/TYSA_TRANSLUCENCY83 1 436 0 83 1 425 0 84 32 413 7b7c4268
a5a99e74545e12f17094cbe883 1 411 0 79 15 407 UGS/ObjectState84 32 401 4010242433
5a574aae981212f587372b84 32 393 31683052c4b15c4a4db21480ee8df8f517 28 0 26 23 29
7 39 48 200 0 0 -17 48 0 310 290 301 46 28 200 0 297 +84 32 372 e0ff455cd9996945
6fa1488e5f638d1a84 32 335 98fe69359c32127861d2c9223484948d84 32 320 9014a2b444bf
97d8c7a659e3f09ee87e84 32 303 bc40804c1037437e82703f024a3d970d84 32 162 9b0bc755
9004f0d2fa9542127709a0b819 16 83 0 1 0 8 4 S0 74 20 14 10 0 0 922 759 483 734 11
30 475 469 12 428 2 0 0 0 0 0 0 0 0 0 0 81 5 1130 1191 406 1 1131 12 1131 0 1132
 0 1133 1134 1135 81 2 12 1658 1136 1 1130 2 0 0 1137 1138 80 2 1136 1139 1140 8
004 0 0 0 0 3 5 0 0 0 FFTFFFFFFFFFFF2 3 83 1 1137 7830.64 84 8 1138 Kg/Cu M 79 1
6 1140 SDL/TYSA_DENSITY80 5 406 642 1141 9000 0 0 0 0 3 6 0 0 0 TTTFFFFFFFFFFF1
 1 2 1 2 81 5 1131 804 406 1 0 1130 0 1130 1142 0 1143 1144 1145 82 9 1132 1 170
7 62 0 4 4 4 0 0 83 2 1133 0 0 82 4 1134 1074791425 1108345857 1242563585 120900
9153 83 4 1135 .2 .2 -.23 -.23 82 9 1142 1 1221 62 0 4 4 4 0 0 83 2 1143 0 0 82
 4 1144 1074791425 1108345857 1242563585 1209009153 83 4 1145 .26 .26 -.26 -.26
 79 21 1141 SolidEdge/PatternData80 1 11 1146 1147 9000 0 0 0 0 3 5 0 0 0 FFTFFF
FFFFFFFF1 82 1 13 70 79 24 1147 UG2/BODY_COLOR_ATTRIBUTE1 0 
