**ABCDEFGHIJKLMNOPQRSTUVWXYZabcdefghijklmnopqrstuvwxyz**************************
**PARASOLID !"#$%&'()*+,-./:;<=>?@[\]^_`{|}~0123456789**************************
**PART1;
MC=x64/Windows NT;
MC_MODEL=genuineintel family 6 model 14 stepping 10, intel(r) core(tm) i7-8750h cpu @ 2.20ghz;
MC_ID=laptop-el6957i5;
OS=windows nt (x64);
OS_RELEASE=6.3 windows 10 home (build 18362) ;
FRU=mdc_ugii_v7.0_djl_can_vrh;
APPL=unigraphics;
SITE=unknown;
USER=hello;
FORMAT=text;
GUISE=transmit;
KEY=3-7;
FILE=E:\Work\GoldSun高盛\Siemens NX\教育訓練\NX CAM\高盛應用科技SIEMENS NX CAM 電腦輔助課程\教學檔案\NX12\3-7.x_t;
DATE=31-dec-2019;
**PART2;
SCH=SCH_3101244_31100;
USFLD_SIZE=0;
**PART3;
**END_OF_HEADER*****************************************************************
T51 : TRANSMIT FILE created by modeller version 310124417 SCH_2800000_280020 10
 1 3 0 0 0 0 0 0 0 1e3 1e-8 0 0 0 1 0 1 2 11 2 3 0 1 3 0 1 4 0 0 0 12 3 159 5 6
 0 0 0 0 1e3 1e-8 2 7 0 1 0 1 1 8 9 10 11 12 13 14 0 0 0 0 0 0 0 11 4 2 0 1 7 0
 1 15 2 0 0 12 7 159 16 17 0 0 0 0 1e3 1e-8 4 18 3 1 0 1 1 19 20 21 22 23 24 25
 0 0 0 0 0 0 0 11 15 1 0 1 18 0 1 0 4 0 0 12 18 2106 26 27 0 0 0 0 1e3 1e-8 15 0
 7 1 0 1 1 28 29 30 31 32 33 34 0 0 0 0 0 0 0 81 1 26 2106 35 18 36 0 0 0 37 70
 27 0 4 T18 0 0 10 20 1 38 38 13 28 3 0 18 0 39 0 0 40 0 51 29 678 0 41 42 0 0 +
-.112 -.037 -.018 0 0 -1 .013 -1 0 0 31 30 658 0 33 43 0 0 --.112 -.037 0 0 0 1
 1 0 0 .013 29 31 640 0 34 44 0 -.125 -.037 0 19 32 1 0 18 40 0 45 V0 16 33 653
 46 ?47 0 48 30 0 0 18 18 34 637 0 47 0 49 31 ?18 17 47 0 50 51 52 34 53 33 0 54
 +18 49 634 0 55 34 56 44 ?18 17 55 0 57 58 54 49 59 60 0 61 +18 56 625 0 62 49
 63 64 ?18 29 44 636 0 49 64 31 -.125 -.037 -.018 29 64 627 0 56 65 44 -.112 -.0
5 -.018 29 65 624 0 63 66 64 -.112 -.05 0 18 63 621 0 53 56 67 65 ?18 29 66 574
 0 67 68 65 -.068 -.05 -.018 18 67 572 0 69 63 70 66 ?18 29 68 571 0 70 71 66 -.
068 -.05 0 18 70 568 0 72 67 73 68 ?18 29 71 561 0 73 74 68 -.055 -.037 -.018 18
 73 559 0 75 70 76 71 ?18 29 74 558 0 76 77 71 -.055 -.037 0 18 76 555 0 78 73 7
9 74 ?18 29 77 508 0 79 80 74 -.055 .037 -.018 18 79 506 0 81 76 82 77 ?18 29 80
 505 0 82 83 77 -.055 .037 0 18 82 502 0 84 79 85 80 ?18 29 83 495 0 85 86 80 -.
068 .05 -.018 18 85 493 0 87 82 88 83 ?18 29 86 492 0 88 89 83 -.068 .05 0 18 88
 489 0 90 85 91 86 ?18 29 89 442 0 91 92 86 -.112 .05 -.018 18 91 440 0 93 88 94
 89 ?18 29 92 439 0 94 95 89 -.112 .05 0 18 94 436 0 96 91 97 92 ?18 29 95 429 0
 97 98 92 -.125 .037 -.018 18 97 427 0 99 94 100 95 ?18 29 98 426 0 100 101 95 -
.125 .037 0 18 100 423 0 102 97 103 98 ?18 29 101 246 0 103 104 98 .1 -.0325 0 1
8 103 244 0 105 100 106 101 ?18 29 104 58 0 107 108 101 .15 .15 0 18 107 49 0 10
9 110 111 104 ?18 29 108 59 0 111 112 104 .15 -.15 0 18 111 50 0 113 107 114 108
 ?18 29 112 60 0 114 115 108 -.15 -.15 0 18 114 51 0 116 111 117 112 ?18 29 115
 61 0 117 118 112 -.15 .15 0 18 117 52 0 119 114 120 115 ?18 29 118 20 0 106 121
 115 .15 .15 -.03175 18 106 17 0 122 103 123 118 ?18 29 121 14 0 123 124 118 .15
 -.15 -.03175 18 123 11 0 125 106 126 121 ?18 29 124 8 0 126 127 121 -.15 -.15 -
.03175 18 126 5 0 128 123 110 124 ?18 29 127 4 0 110 129 124 -.15 .15 -.03175 18
 110 2 0 130 126 107 127 ?18 29 129 395 0 120 131 127 .15 .0325 -.018 18 120 304
 0 132 117 133 129 ?18 29 131 396 0 133 134 129 .15 .0325 0 18 133 314 0 135 120
 136 131 ?18 29 134 397 0 136 137 131 .15 -.0325 -.018 18 136 313 0 138 133 139
 134 ?18 29 137 398 0 139 140 134 .15 -.0325 0 18 139 305 0 141 136 142 137 ?18
 29 140 401 0 143 144 137 .1 .0325 0 18 143 315 0 145 146 0 140 ?18 29 144 404 0
 142 147 140 .1 -.0325 -.018 18 142 312 0 148 139 146 144 ?18 29 147 405 0 146 0
 144 .1 .0325 -.018 18 146 310 0 149 142 143 147 ?18 17 149 0 150 151 132 146 15
2 153 0 154 +15 150 366 0 149 155 0 17 151 0 150 156 149 142 157 158 0 159 +17 1
32 0 150 149 156 120 160 161 0 152 -17 152 0 162 135 154 120 149 153 0 163 -16 1
53 282 164 ?149 158 165 166 0 0 18 17 154 0 162 152 145 146 167 168 0 157 -15 16
2 349 0 135 169 0 17 145 0 162 154 135 143 170 171 0 167 +17 167 0 172 105 157 1
43 154 168 0 173 +16 168 290 174 ?167 175 176 177 0 0 18 17 157 0 172 167 148 14
6 151 158 0 0 -15 172 355 0 105 178 0 17 148 0 172 157 105 142 179 176 0 151 -16
 158 291 180 ?151 181 153 182 0 0 18 81 1 180 1718 183 158 0 0 184 185 186 16 18
1 293 187 ?156 176 158 188 0 0 18 31 182 393 0 158 166 188 0 +.1 0 -.018 0 0 1 1
 0 0 .0325 30 166 394 0 153 189 182 0 +.189911975435005 .0325 -.018 -1 0 0 30 18
8 392 0 181 182 190 0 +.1 -.0325 -.018 1 0 0 30 190 390 0 171 188 191 0 +.189911
975435005 .0325 0 -1 0 0 16 171 272 192 ?145 193 194 190 0 0 18 31 191 389 0 193
 190 195 0 +.1 0 0 0 0 1 1 0 0 .0325 16 193 298 196 ?105 165 171 191 0 0 18 30 1
95 388 0 165 191 197 0 +.1 -.0325 0 1 0 0 16 165 301 198 ?141 153 193 195 0 0 18
 30 197 385 0 176 195 177 0 +.1 -.0325 -.018 0 0 1 16 176 292 199 ?179 168 181 1
97 0 0 18 30 177 384 0 168 197 200 0 +.1 .0325 -.018 0 0 1 30 200 382 0 175 177
 201 0 +.15 -.0325 -.03175 0 0 -1 16 175 284 202 ?138 203 168 200 0 0 18 30 201
 381 0 203 200 204 0 +.15 .0325 -.03175 0 0 1 16 203 283 205 ?135 206 175 201 0
 0 18 30 204 218 0 207 201 208 0 +-.125 .05 -.018 0 -1 0 16 207 428 209 ?61 210
 211 204 0 0 18 30 208 217 0 210 204 212 0 +-.125 -.05 -.018 1 0 0 16 210 626 21
3 ?69 214 207 208 0 0 18 30 212 216 0 214 208 215 0 +-.055 -.05 -.018 0 1 0 16 2
14 560 216 ?81 217 210 212 0 0 18 30 215 215 0 211 212 218 0 +-.055 .05 -.018 -1
 0 0 16 211 494 219 ?93 207 220 215 0 0 18 30 218 214 0 221 215 222 0 +-.125 .05
 0 0 -1 0 16 221 424 223 ?54 224 206 218 0 0 18 30 222 213 0 224 218 225 0 +-.12
5 -.05 0 1 0 0 16 224 622 226 ?72 220 221 222 0 0 18 30 225 212 0 220 222 227 0
 +-.055 -.05 0 0 1 0 16 220 556 228 ?84 211 224 225 0 0 18 30 227 211 0 206 225
 229 0 +-.055 .05 0 -1 0 0 16 206 490 230 ?96 221 203 227 0 0 18 30 229 7 0 231
 227 232 0 +-.15 .15 -.03175 0 -1 0 16 231 6 233 ?234 235 236 229 0 0 18 30 232
 13 0 235 229 237 0 +-.15 -.15 -.03175 1 0 0 16 235 12 238 ?239 240 231 232 0 0
 18 30 237 19 0 240 232 241 0 +.15 -.15 -.03175 0 1 0 16 240 18 242 ?243 244 235
 237 0 0 18 30 241 24 0 236 237 245 0 +.15 .15 -.03175 -1 0 0 16 236 23 246 ?247
 231 248 241 0 0 18 30 245 57 0 249 241 250 0 +-.15 .15 0 0 -1 0 16 249 43 251 ?
252 253 217 245 0 0 18 30 250 56 0 253 245 254 0 +-.15 -.15 0 1 0 0 16 253 40 25
5 ?256 257 249 250 0 0 18 30 254 55 0 248 250 258 0 +.15 -.15 0 0 1 0 16 248 37
 259 ?260 236 257 254 257 257 18 30 258 54 0 217 254 261 0 +.15 .15 0 -1 0 0 16
 217 46 262 ?263 249 214 258 0 0 18 30 261 74 0 244 258 264 0 +.15 .15 -.03175 0
 0 1 16 244 62 265 ?266 267 240 261 0 0 18 30 264 75 0 267 261 268 0 +.15 -.15 -
.03175 0 0 1 16 267 63 269 ?113 270 244 264 0 0 18 30 268 76 0 270 264 271 0 +-.
15 -.15 -.03175 0 0 1 16 270 64 272 ?116 273 267 268 0 0 18 30 271 77 0 273 268
 274 0 +-.15 .15 -.03175 0 0 1 16 273 65 275 ?119 161 270 271 0 0 18 30 274 264
 0 161 271 276 0 +.15 -.15 -.018 0 -1 0 16 161 262 277 ?160 278 273 274 0 0 18 3
0 276 432 0 278 274 279 0 +-.125 .037 0 0 0 1 16 278 430 280 ?281 282 161 276 0
 0 18 30 279 445 0 282 276 283 0 --.112 .05 -.018 0 0 1 16 282 443 284 ?285 286
 278 279 0 0 18 31 283 451 0 286 279 287 0 +-.112 .037 -.018 0 0 1 1 0 0 .013 16
 286 449 288 ?99 289 282 283 0 0 18 31 287 460 0 289 283 290 0 --.112 .037 0 0 0
 1 1 0 0 .013 16 289 455 291 ?292 293 286 287 0 0 18 30 290 498 0 293 287 294 0
 +-.068 .05 0 0 0 1 16 293 496 295 ?296 297 289 290 0 0 18 30 294 511 0 297 290
 298 0 --.055 .037 -.018 0 0 1 16 297 509 299 ?300 301 293 294 0 0 18 31 298 517
 0 301 294 302 0 +-.068 .037 -.018 0 0 1 1 0 0 .013 16 301 515 185 ?87 303 297 2
98 0 0 18 31 302 526 0 303 298 304 0 --.068 .037 0 0 0 1 1 0 0 .013 16 303 521 3
05 ?306 307 301 302 0 0 18 30 304 564 0 307 302 308 0 +-.055 -.037 0 0 0 1 16 30
7 562 309 ?310 311 303 304 0 0 18 30 308 577 0 311 304 312 0 --.068 -.05 -.018 0
 0 1 16 311 575 313 ?314 315 307 308 0 0 18 31 312 583 0 315 308 316 0 +-.068 -.
037 -.018 0 0 1 1 0 0 .013 16 315 581 317 ?75 318 311 312 0 0 18 31 316 592 0 31
8 312 319 0 --.068 -.037 0 0 0 1 1 0 0 .013 16 318 587 320 ?321 322 315 316 0 0
 18 30 319 630 0 322 316 323 0 +-.112 -.05 0 0 0 1 16 322 628 324 ?325 60 318 31
9 0 0 18 30 323 643 0 60 319 43 0 --.125 -.037 -.018 0 0 1 16 60 641 184 ?55 48
 322 323 0 0 18 31 43 649 0 48 323 30 0 +-.112 -.037 -.018 0 0 1 1 0 0 .013 16 4
8 647 326 ?62 33 60 43 0 0 18 81 1 326 1736 183 48 0 0 226 187 327 17 62 0 328 6
9 61 56 329 48 0 330 +15 328 193 0 61 331 0 17 69 0 328 75 62 67 330 210 0 314 +
17 61 0 328 62 99 49 58 207 0 329 +17 329 0 332 59 333 49 62 48 0 0 -17 330 0 33
4 325 314 56 69 210 0 333 -15 334 182 0 330 335 0 17 325 0 334 72 330 63 333 322
 0 52 +17 314 0 334 330 72 67 336 311 0 337 +17 333 0 332 329 53 56 325 322 0 0
 -15 332 667 0 329 41 0 17 53 0 332 333 59 63 47 33 0 325 -17 59 0 332 53 329 34
 55 60 0 0 -14 41 666 338 ?339 340 332 28 29 -0 0 339 340 45 81 1 338 1753 183 4
1 341 0 342 343 344 14 339 721 345 ?346 41 347 28 348 -0 0 346 41 45 14 340 600
 349 ?41 350 351 28 42 -0 0 41 350 45 13 45 82 0 0 0 0 0 0 32 39 14 39 1450 352
 ?353 0 354 28 355 -0 0 353 0 45 81 1 352 1757 183 39 356 0 357 358 359 14 353 1
444 360 ?361 39 362 28 363 -0 0 361 39 45 15 354 25 0 364 39 365 50 355 29 0 39
 366 367 0 +-.15 .15 -.03175 0 0 1 1 0 0 50 366 201 0 368 369 355 0 +-.055 .05 -
.018 0 1 0 0 0 1 50 367 53 0 361 355 370 0 +-.15 .15 0 0 0 1 1 0 0 14 361 35 371
 ?372 353 50 28 367 +0 0 372 353 45 50 370 78 0 373 367 374 0 +.15 -.15 -.03175
 1 0 0 0 0 -1 14 373 67 357 ?368 375 376 28 370 +0 0 368 375 45 50 374 79 0 375
 370 377 0 +-.15 -.15 -.03175 0 -1 0 0 0 -1 14 375 69 378 ?373 379 380 28 374 +0
 0 373 379 45 50 377 80 0 379 374 381 0 +-.15 .15 -.03175 -1 0 0 0 0 1 14 379 71
 382 ?375 372 383 28 377 +0 0 375 372 45 50 381 81 0 372 377 384 0 +.15 .15 -.03
175 0 1 0 0 0 1 14 372 73 385 ?379 361 386 28 381 +0 0 379 361 45 51 384 480 0 3
87 381 388 0 +-.112 .037 -.018 0 0 -1 .013 -1 0 0 14 387 468 389 ?350 155 390 28
 384 -0 0 350 155 45 51 388 546 0 350 384 42 0 +-.068 .037 -.018 0 0 -1 .013 -1
 0 0 14 350 534 391 ?340 387 392 28 388 -0 0 340 387 45 51 42 612 0 340 388 29 0
 +-.068 -.037 -.018 0 0 -1 .013 -1 0 0 81 1 391 1761 183 350 393 0 394 395 396 1
5 392 535 0 397 350 0 17 397 0 392 398 399 79 87 301 0 0 -17 398 0 392 90 397 82
 300 297 0 0 -17 399 0 392 397 90 85 296 293 0 0 -17 87 0 328 93 81 85 397 301 0
 400 +17 93 0 328 99 87 91 400 211 0 285 +17 81 0 328 87 75 79 401 214 0 300 +17
 400 0 402 296 285 85 93 211 0 399 -15 402 170 0 400 368 0 17 296 0 402 96 400 8
8 399 293 0 403 +17 285 0 402 400 96 91 404 282 0 405 +17 96 0 402 285 296 94 40
3 206 0 292 +17 404 0 390 102 405 94 285 282 0 0 -17 405 0 390 404 406 91 99 286
 0 0 -15 390 469 0 405 387 0 17 406 0 390 405 102 97 281 278 0 0 -17 99 0 328 61
 93 97 405 286 0 58 +17 58 0 57 281 55 97 61 207 0 406 -15 57 176 0 54 407 0 17
 281 0 57 54 58 100 406 278 0 51 +17 54 0 57 55 281 34 51 221 0 59 +17 51 0 50 2
92 47 100 54 221 0 0 -15 50 131 0 403 361 408 17 292 0 50 403 51 94 102 289 0 40
4 +17 403 0 50 306 292 88 96 206 0 0 -17 102 0 390 406 404 100 292 289 0 281 -17
 306 0 50 409 403 82 90 303 0 398 +17 409 0 50 321 306 76 84 220 0 0 -17 90 0 39
2 399 398 88 306 303 0 296 -17 321 0 50 52 409 70 78 318 0 336 +17 84 0 410 300
 310 82 409 220 0 306 +15 410 188 0 401 411 0 17 300 0 410 401 84 79 398 297 0 3
97 +17 310 0 410 84 401 76 412 307 0 409 +17 401 0 410 310 300 73 81 214 0 412 -
17 412 0 351 337 78 73 310 307 0 0 -15 351 601 0 337 340 0 17 337 0 351 336 412
 67 75 315 0 0 -17 78 0 351 412 336 76 321 318 0 310 -17 336 0 351 78 337 70 314
 311 0 0 -17 75 0 328 81 69 73 337 315 0 401 +14 411 183 413 ?331 335 410 28 414
 -0 0 331 335 45 81 1 413 1767 183 411 415 0 385 416 417 14 331 189 418 ?169 411
 328 28 419 +0 0 169 411 45 14 335 177 420 ?411 407 334 28 421 -0 0 411 407 45 5
0 414 204 0 411 419 421 0 +-.055 -.05 -.018 1 0 0 0 0 -1 50 419 206 0 331 422 41
4 0 +-.125 .05 -.018 0 0 1 1 0 0 50 421 203 0 335 414 369 0 +-.125 -.05 -.018 0
 -1 0 0 0 -1 50 369 202 0 407 421 366 0 +-.125 .05 -.018 -1 0 0 0 0 1 14 407 171
 395 ?335 368 57 28 369 -0 0 335 368 45 81 1 395 1762 183 407 423 0 391 424 425
 14 368 165 426 ?407 373 402 28 366 -0 0 407 373 45 81 1 426 1778 183 368 427 0
 389 428 429 80 1 183 430 431 9000 1 1 1 1 1 1 1 1 0 FFFFTFTFFFFFFF3 81 1 427 15
20 432 368 433 426 434 423 435 81 1 389 1777 183 387 436 0 345 426 437 81 1 428
 1779 183 438 439 0 426 440 441 84 32 429 8e6f6a73406f5bd97acb4ecbd5fd1e6e14 438
 977 428 ?442 443 444 28 445 -0 0 442 443 45 81 1 439 1560 432 438 446 428 447 4
48 449 81 1 440 1780 183 450 451 0 428 452 453 84 32 441 cfddc12aa11d011d3a7d838
3379c19e114 450 774 440 ?454 346 455 28 456 -0 0 454 346 45 81 1 451 1550 432 45
0 457 440 458 459 460 81 1 452 1781 183 461 462 0 440 0 463 84 32 453 e56cf0da1b
e99a6d855e4100e13febf614 461 1291 452 ?464 465 466 28 467 -0 0 464 465 45 81 1 4
62 1574 432 461 468 452 469 470 471 84 32 463 a4f1fb1b7a54d7818c3e7e7a1421613980
 1 432 472 473 8015 0 0 0 0 3 5 0 0 0 FFFFTFFFFFFFFF2 81 1 468 1573 474 461 475
 462 476 477 478 81 1 469 1572 432 465 476 394 479 462 480 81 1 470 1576 432 464
 477 481 462 482 483 83 1 471 0 14 464 1359 481 ?484 461 485 28 486 -0 0 484 461
 45 81 1 477 1575 474 464 487 470 468 488 489 81 1 481 1765 183 464 470 0 490 38
5 491 81 1 482 1578 432 484 488 492 470 493 494 83 1 483 0 14 484 1408 492 ?495
 464 496 28 497 +0 0 495 464 45 81 1 488 1577 474 484 498 482 477 499 500 81 1 4
92 1748 183 484 482 0 501 360 502 81 1 493 1580 432 495 499 503 482 0 504 83 1 4
94 0 14 495 1471 503 ?0 484 505 28 506 +0 0 0 484 45 81 1 499 1579 474 495 507 4
93 488 0 508 81 1 503 1771 183 495 493 0 509 510 511 83 1 504 0 81 1 509 1770 18
3 512 513 0 349 503 514 81 1 510 1772 183 515 516 0 503 378 517 84 32 511 390595
06e43a3dc4fa3ffd3664747e1514 515 356 510 ?155 178 518 28 519 -0 0 155 178 45 81
 1 516 1534 432 515 520 510 521 522 523 81 1 378 1773 183 375 524 0 510 525 526
 84 32 517 44ca6e6f8455a5852cab3e2333c70b7981 1 524 1516 432 375 527 378 528 434
 529 81 1 525 1774 183 169 530 0 378 531 532 84 32 526 b5a347613a219035d5492ec11
623de5414 169 344 525 ?178 331 162 28 422 -0 0 178 331 45 81 1 530 1530 432 169
 533 525 534 521 535 81 1 531 1775 183 536 479 0 525 345 537 84 32 532 a1de9f020
4c3a16442d54f8ce8e286d614 536 1154 531 ?465 538 539 28 540 -0 0 465 538 45 81 1
 479 1570 432 536 541 531 542 469 543 81 1 345 1776 183 339 544 0 531 389 545 84
 32 537 4930398601e1307b1a98d9e9afff739181 1 544 1546 432 339 546 345 341 458 54
7 84 32 545 dc4fe43ea7154ee2c4ec47afc15a76f281 1 546 1545 474 339 548 544 549 55
0 551 81 1 341 1544 432 41 549 338 552 544 553 81 1 458 1548 432 346 550 554 544
 451 555 83 1 547 0 14 346 764 554 ?450 339 556 28 557 -0 0 450 339 45 81 1 550
 1547 474 346 558 458 546 457 559 81 1 554 1759 183 346 458 0 358 394 560 83 1 5
55 0 81 1 358 1758 183 178 521 0 352 554 561 81 1 394 1760 183 465 469 0 554 391
 562 84 32 560 64a70625f2d0512526b34614026f7b5914 465 1223 394 ?461 536 563 28 5
64 -0 0 461 536 45 84 32 562 aabdcb7ffd7b6c722021e111f51982fe15 563 1228 0 565 4
65 566 51 564 1242 0 465 467 540 0 +.1 .115 -.425450423081233 0 0 1 .011 1 0 0 5
1 467 1310 0 461 486 564 0 +.1 -.115 -.425450423081233 0 0 1 .011 1 0 0 51 540 1
173 0 536 564 567 0 +-.1 .115 -.425450423081233 0 0 1 .011 1 0 0 50 567 1104 0 5
68 540 569 0 +-.13 -.13 -.008 0 0 -1 -1 0 0 14 568 1083 416 ?538 570 571 28 567
 -0 0 538 570 45 51 569 1103 0 538 567 572 0 +-.13 -.13 0 0 0 -1 .0085 0 -1 0 14
 538 1093 342 ?536 568 573 28 569 -0 0 536 568 45 51 572 1059 0 570 569 445 0 +-
.13 -.13 -.433450423081233 0 0 1 .0045 1 0 0 14 570 1040 574 ?568 442 575 28 572
 -0 0 568 442 45 50 445 998 0 438 572 576 0 +.13 -.13 -.008 0 0 -1 -1 0 0 51 576
 997 0 442 445 577 0 +.13 -.13 0 0 0 -1 .0085 0 -1 0 14 442 987 424 ?570 438 578
 28 576 -0 0 570 438 45 51 577 953 0 443 576 579 0 +.13 -.13 -.433450423081233 0
 0 1 .0045 1 0 0 14 443 934 343 ?438 512 580 28 577 -0 0 438 512 45 50 579 892 0
 581 577 582 0 +.13 .13 -.008 0 0 -1 -1 0 0 14 581 871 501 ?512 454 583 28 579 -
0 0 512 454 45 51 582 891 0 512 579 584 0 +.13 .13 0 0 0 -1 .0085 0 -1 0 14 512
 881 509 ?443 581 585 28 582 -0 0 443 581 45 51 584 847 0 454 582 557 0 +.13 .13
 -.433450423081233 0 0 1 .0045 1 0 0 14 454 828 490 ?581 450 586 28 584 -0 0 581
 450 45 50 557 785 0 346 584 456 0 +-.13 .13 -.008 0 0 -1 -1 0 0 51 456 784 0 45
0 557 348 0 +-.13 .13 0 0 0 -1 .0085 0 -1 0 51 348 740 0 339 456 587 0 +-.13 .13
 -.433450423081233 0 0 1 .0045 1 0 0 50 587 379 0 155 348 519 0 +.1 0 -.018 0 0
 1 1 0 0 14 155 362 588 ?387 515 150 28 587 +0 0 387 515 45 50 519 377 0 515 587
 589 0 +.1 -.0325 -.018 0 -1 0 0 0 -1 51 589 376 0 178 519 422 0 +.1 0 -.018 0 0
 1 .0325 1 0 0 14 178 350 358 ?515 169 172 28 589 -0 0 515 169 45 50 422 375 0 1
69 589 419 0 +.189911975435005 .0325 -.018 0 1 0 0 0 1 81 1 588 1755 183 155 522
 0 343 357 590 81 1 522 1536 432 155 591 588 516 436 592 81 1 343 1754 183 443 4
47 0 338 588 593 81 1 357 1756 183 373 434 0 588 352 594 84 32 590 5e4736d120ebd
1ceb822b50f843cc84d81 1 434 1518 432 373 595 357 524 427 596 84 32 594 a913b395c
aed1cb8ac268d2567798f0c81 1 595 1517 474 373 597 434 527 433 598 83 1 596 0 80 1
 474 0 599 8001 0 0 0 0 3 5 0 0 0 FFFFTFTFFFFFFF2 81 1 597 412 600 373 601 595 6
02 603 0 81 1 527 1515 474 375 602 524 604 595 605 81 1 433 1519 474 368 606 427
 595 607 608 83 3 598 .717647058823529 .811749446860456 .764705882352941 81 1 60
6 689 600 368 609 433 610 611 0 81 1 607 1521 474 407 611 423 433 612 613 83 3 6
08 .717647058823529 .811749446860456 .764705882352941 81 1 611 690 600 407 614 6
07 606 615 0 81 1 423 1522 432 407 607 395 427 616 617 81 1 612 1523 474 335 615
 616 607 618 619 83 3 613 .717647058823529 .811749446860456 .764705882352941 81
 1 615 691 600 335 620 612 611 621 0 81 1 616 1524 432 335 612 420 423 415 622 8
1 1 618 1525 474 411 621 415 612 623 624 83 3 619 .717647058823529 .811749446860
456 .764705882352941 81 1 621 692 600 411 625 618 615 626 0 81 1 415 1526 432 41
1 618 413 616 534 627 81 1 623 1527 474 331 626 534 618 533 628 83 3 624 .717647
058823529 .811749446860456 .764705882352941 81 1 626 693 600 331 629 623 621 630
 0 81 1 534 1528 432 331 623 418 415 530 631 81 1 533 1529 474 169 603 530 623 6
32 633 83 3 628 .717647058823529 .811749446860456 .764705882352941 81 1 603 414
 600 169 634 533 597 635 0 81 1 632 1531 474 178 635 521 533 520 636 83 3 633 .7
17647058823529 .811749446860456 .764705882352941 81 1 635 415 600 178 637 632 60
3 638 0 81 1 521 1532 432 178 632 358 530 516 639 81 1 520 1533 474 515 638 516
 632 591 640 83 3 636 .717647058823529 .811749446860456 .764705882352941 81 1 63
8 416 600 515 641 520 635 610 0 81 1 591 1535 474 155 610 522 520 642 643 83 3 6
40 .717647058823529 .811749446860456 .764705882352941 81 1 610 417 600 155 644 5
91 638 606 0 81 1 642 1537 474 387 630 436 591 645 646 83 3 643 .717647058823529
 .811749446860456 .764705882352941 81 1 630 694 600 387 647 642 626 648 0 81 1 4
36 1538 432 387 642 389 522 393 649 81 1 645 1539 474 350 648 393 642 650 651 83
 3 646 .717647058823529 .811749446860456 .764705882352941 81 1 648 695 600 350 6
52 645 630 653 0 81 1 393 1540 432 350 645 391 436 552 654 81 1 650 1541 474 340
 653 552 645 549 655 83 3 651 .717647058823529 .811749446860456 .764705882352941
 81 1 653 696 600 340 656 650 648 657 0 81 1 552 1542 432 340 650 349 393 341 65
8 81 1 549 1543 474 41 657 341 650 546 659 83 3 655 .717647058823529 .8117494468
60456 .764705882352941 81 1 657 697 600 41 660 549 653 548 0 83 3 659 .717647058
823529 .811749446860456 .764705882352941 80 1 600 661 662 9000 1 1 1 1 1 1 1 1 0
 FFFFTFTTFFFFFF1 81 1 660 685 661 41 0 657 656 663 664 81 1 548 799 600 339 665
 546 657 558 0 81 5 665 793 666 339 663 548 0 667 668 669 670 671 672 81 1 558 8
00 600 346 673 550 548 674 0 81 1 673 761 661 346 0 558 663 675 676 81 1 674 801
 600 450 675 457 558 677 0 81 1 675 776 661 450 0 674 673 678 679 81 1 457 1549
 474 450 674 451 550 680 681 81 1 677 906 600 454 667 680 674 682 0 81 5 667 900
 666 454 678 677 665 683 684 685 686 687 688 81 1 680 1551 474 454 677 459 457 6
89 690 81 1 682 907 600 581 691 689 677 692 0 81 1 691 868 661 581 0 682 678 693
 694 81 1 689 1553 474 581 682 695 680 696 697 81 1 692 908 600 512 693 696 682
 698 0 81 1 693 883 661 512 0 692 691 699 700 81 1 696 1555 474 512 692 513 689
 701 702 81 1 698 1012 600 443 683 701 692 703 0 81 5 683 1006 666 443 699 698 6
67 704 705 706 707 708 709 81 1 701 1557 474 443 698 447 696 446 710 81 1 703 10
13 600 438 711 446 698 712 0 81 1 711 974 661 438 0 703 699 713 714 81 1 446 155
9 474 438 703 439 701 715 716 81 1 712 1014 600 442 713 715 703 717 0 81 1 713 9
89 661 442 0 712 711 718 719 81 1 715 1561 474 442 712 448 446 720 721 81 1 717
 1118 600 570 704 720 712 722 0 81 5 704 1112 666 570 718 717 683 723 724 725 72
6 727 728 81 1 720 1563 474 570 717 729 715 730 731 81 1 722 1119 600 568 732 73
0 717 733 0 81 1 732 1080 661 568 0 722 718 734 735 81 1 730 1565 474 568 722 73
6 720 737 738 81 1 733 1120 600 538 734 737 722 739 0 81 1 734 1095 661 538 0 73
3 732 740 741 81 1 737 1567 474 538 733 542 730 541 742 81 1 739 1188 600 536 72
3 541 733 743 0 81 5 723 1181 666 536 740 739 704 744 745 746 747 0 748 81 1 541
 1569 474 536 739 479 737 476 749 81 1 743 1257 600 465 744 476 739 475 0 81 5 7
44 1250 666 465 750 743 723 751 752 753 754 0 755 81 1 476 1571 474 465 743 469
 541 468 756 81 1 475 1325 600 461 751 468 743 487 0 81 5 751 1318 666 461 757 4
75 744 758 759 760 761 0 762 81 1 487 1393 600 464 758 477 475 763 0 81 5 758 13
86 666 464 764 487 751 0 765 766 767 0 768 81 1 763 1437 600 361 769 770 487 498
 0 81 1 769 1401 661 361 0 763 764 771 772 81 1 770 1509 474 361 763 773 774 775
 776 81 1 498 1438 600 484 771 488 763 777 0 81 1 771 1409 661 484 0 498 769 778
 779 81 1 777 1502 600 39 780 781 498 782 0 81 1 780 1451 661 39 0 777 778 783 7
84 81 1 781 1505 474 39 777 356 0 774 785 81 1 782 1503 600 353 778 774 777 507
 0 81 1 778 1445 661 353 0 782 771 780 786 81 1 774 1507 474 353 782 787 781 770
 788 81 1 507 1504 600 495 783 499 782 0 0 81 1 783 1472 661 495 0 507 780 0 789
 80 1 661 790 791 9000 0 0 0 0 3 6 0 0 0 FFFFTFFFFFFFFF1 82 1 789 1392 79 23 791
 SolidEdge/MNKR_ATTR_CID81 1 787 1508 432 353 774 360 356 773 792 83 3 788 .7176
47058823529 .811749446860456 .764705882352941 81 1 360 1749 183 353 787 0 492 38
2 793 81 1 356 1506 432 39 781 352 0 787 794 81 1 773 1510 432 361 770 371 787 7
95 796 83 1 792 0 81 1 371 1744 183 361 773 0 797 420 798 81 1 795 1512 432 372
 775 385 773 528 799 83 1 796 0 81 1 775 1511 474 372 800 795 770 604 801 81 1 3
85 1766 183 372 795 0 481 413 802 81 1 528 1514 432 379 604 382 795 524 803 83 1
 799 0 81 1 604 1513 474 379 804 528 775 527 805 81 1 382 1750 183 379 528 0 360
 418 806 83 1 803 0 81 1 418 1751 183 331 534 0 382 342 807 84 32 806 d5fd96bde6
8e9e60c7d3ffc8a6f4088381 1 342 1752 183 538 542 0 418 338 808 84 32 807 2ce61666
3216a0c4028ce9dbe76715a481 1 542 1568 432 538 737 342 736 479 809 84 32 808 1d7c
d2a84ac1feb2aabdb08d083d981e81 1 736 1566 432 568 730 416 729 542 810 83 1 809 0
 81 1 416 1768 183 568 736 0 413 349 811 81 1 729 1564 432 570 720 574 448 736 8
12 83 1 810 0 81 1 574 1746 183 570 729 0 420 501 813 81 1 448 1562 432 442 715
 424 439 729 814 83 1 812 0 81 1 424 1763 183 442 448 0 395 490 815 83 1 814 0 8
1 1 490 1764 183 454 459 0 424 481 816 84 32 815 3ae36b1b46540e5c0285149825c84bf
381 1 459 1552 432 454 680 490 451 695 817 84 32 816 ff35cd51a2a433287ee5b020030
1c38981 1 695 1554 432 581 689 501 459 513 818 83 1 817 0 81 1 501 1747 183 581
 695 0 574 492 819 81 1 513 1556 432 512 696 509 695 447 820 83 1 818 0 81 1 447
 1558 432 443 701 343 513 439 821 83 1 820 0 83 1 821 0 84 32 819 c25058a9ff7289
16b48e5b6edd9d92ae81 1 420 1745 183 335 616 0 371 574 822 84 32 813 df0048eea69b
1966e595ea40c58f44db84 32 822 0ca29283d0dba719f4ca617ee328e1db81 1 349 1769 183
 340 552 0 416 509 823 84 32 811 4892c637e236ba4a0641824417287e9b84 32 823 2b8d2
f9ff5f655db13994d284470550481 1 804 109 600 379 824 604 800 602 0 83 3 805 .7176
47058823529 .811749446860456 .764705882352941 81 1 824 102 661 379 0 804 825 826
 827 81 1 800 108 600 372 826 775 0 804 0 81 1 602 110 600 375 825 527 804 597 0
 81 1 825 98 661 375 0 602 601 824 828 81 1 601 94 661 373 0 597 0 825 829 82 1
 828 402 82 1 829 402 81 1 826 106 661 372 0 800 824 609 830 81 1 609 166 661 36
8 0 606 826 614 831 82 1 830 402 81 1 614 172 661 407 0 611 609 620 832 82 1 831
 463 81 1 620 178 661 335 0 615 614 625 833 82 1 832 463 81 1 625 184 661 411 0
 621 620 629 834 82 1 833 463 81 1 629 190 661 331 0 626 625 634 835 82 1 834 46
3 81 1 634 345 661 169 0 603 629 637 836 82 1 835 463 81 1 637 351 661 178 0 635
 634 641 837 82 1 836 856 81 1 641 357 661 515 0 638 637 644 838 82 1 837 856 81
 1 644 363 661 155 0 610 641 647 839 82 1 838 856 81 1 647 487 661 387 0 630 644
 652 840 82 1 839 856 81 1 652 553 661 350 0 648 647 656 841 82 1 840 921 81 1 6
56 619 661 340 0 653 652 660 842 82 1 841 921 82 1 842 921 82 1 827 402 84 32 80
2 aea675035ce1a94d9e1c4b54ad0a07e783 3 801 .717647058823529 .811749446860456 .76
4705882352941 81 1 797 1743 183 257 843 0 230 371 844 84 32 798 b38247c0ba077631
73a8fc08865f60b016 257 241 797 ?109 248 253 254 248 248 18 81 1 843 242 790 257
 0 797 845 846 847 81 1 230 1742 183 206 848 0 216 797 849 84 32 844 5b026305392
bc956a019eb918368768781 1 848 491 790 206 0 230 850 851 852 81 1 216 1741 183 21
4 0 0 246 230 853 84 32 849 d210f56b297b8de23dc2a0525551800e81 1 246 1740 183 23
6 0 0 275 216 854 84 32 853 103409c979407c7258579dd29197281081 1 275 1739 183 27
3 0 0 305 246 855 84 32 854 784deb1003ee403d376744e3d4ab174f81 1 305 1738 183 30
3 0 0 187 275 856 84 32 855 b61dc2ac86613f70a04a31949c52e61c81 1 187 1737 183 18
1 0 0 326 305 857 84 32 856 b3b34080f57b7f72bebd8b78a0b17bb184 32 857 9d9e91127f
e284303a59c7fd3a9877f880 1 790 858 859 9000 0 0 0 0 3 6 0 0 0 FFFFTFTTFFFFFF1 81
 1 850 425 790 221 0 223 860 848 861 81 1 851 557 790 220 0 228 848 862 863 82 1
 852 17 81 1 228 1708 183 220 851 0 255 46 864 81 1 862 623 790 224 0 226 851 86
5 866 82 1 863 17 81 1 226 1735 183 224 862 0 251 326 867 81 1 865 792 790 868 0
 869 862 870 871 82 1 866 17 16 868 755 869 ?872 194 873 874 0 0 18 81 1 869 169
1 183 868 865 0 875 876 877 81 1 870 899 790 878 0 879 865 880 881 82 1 871 17 1
6 878 862 879 ?882 883 884 885 0 0 18 81 1 879 1673 183 878 870 0 886 887 888 81
 1 880 1005 790 889 0 890 870 891 892 82 1 881 17 16 889 968 890 ?893 894 895 89
6 0 0 18 81 1 890 1682 183 889 880 0 897 898 899 81 1 891 1111 790 900 0 875 880
 901 902 82 1 892 17 16 900 1074 875 ?903 904 905 906 0 0 18 81 1 875 1690 183 9
00 891 0 907 869 908 81 1 901 1146 790 909 0 886 891 910 911 82 1 902 17 16 909
 1143 886 ?912 913 914 915 0 0 18 81 1 886 1672 183 909 901 0 916 879 917 81 1 9
10 1215 790 918 0 897 901 919 920 82 1 911 17 16 918 1212 897 ?921 914 922 923 0
 0 18 81 1 897 1681 183 918 910 0 924 890 925 81 1 919 1283 790 926 0 927 910 92
8 929 82 1 920 17 16 926 1280 927 ?930 922 931 932 0 0 18 81 1 927 1686 183 926
 919 0 933 934 935 81 1 928 1351 790 936 0 907 919 937 938 82 1 929 17 16 936 13
48 907 ?939 931 940 941 0 0 18 81 1 907 1689 183 936 928 0 942 875 943 81 1 937
 1406 790 944 0 945 928 946 947 82 1 938 17 16 944 1404 945 ?948 940 949 950 0 0
 18 81 1 945 1694 183 944 937 0 951 952 953 81 1 946 1462 790 954 0 916 937 0 95
5 82 1 947 17 16 954 1459 916 ?956 949 0 957 0 0 18 81 1 916 1671 183 954 946 0
 958 886 959 82 1 955 17 81 1 958 1670 183 895 0 0 960 916 961 84 32 959 b7db67e
4e6a7946d0dd13cec4bddc38f16 895 969 958 ?962 889 963 964 0 0 18 81 1 960 1669 18
3 922 0 0 965 958 966 84 32 961 d98e139cb9d0efa70e448c95ec55d16016 922 1278 960
 ?967 918 926 968 0 0 18 81 1 965 1668 183 969 0 0 0 960 970 84 32 966 5737d402e
ca1c9840e8304d3b13da2a916 969 757 965 ?971 873 883 972 0 0 18 84 32 970 ee49eed5
0dc95103ee53a9d6e1a0a7aa17 971 0 973 971 971 0 974 969 0 0 +16 873 756 924 ?975
 868 969 976 0 0 18 16 883 816 933 ?977 969 878 978 0 0 18 31 972 789 0 969 978
 976 0 +-.13 .13 0 0 0 -1 0 -1 0 .0085 31 978 850 0 883 885 972 0 +.13 .13 -.031
75 0 0 1 1 0 0 .0045 31 976 788 0 873 972 874 0 +-.13 .13 -.008 0 0 1 0 -1 0 .00
85 31 874 787 0 868 976 189 0 --.13 .13 -.008 0 0 -1 -1 0 0 .0045 31 189 743 0 1
94 874 166 0 +-.13 .13 -.03175 0 0 1 1 0 0 .0045 16 194 709 979 ?980 171 868 189
 0 0 18 81 1 979 1676 183 194 0 0 981 982 983 17 980 0 365 980 980 0 984 194 0 0
 +15 365 699 0 980 39 985 17 984 0 347 984 984 0 980 194 0 0 -15 347 726 0 984 3
39 986 15 986 727 0 872 339 0 17 872 0 986 872 872 0 987 868 0 0 +17 987 0 988 9
87 987 0 872 868 0 0 -15 988 763 0 987 346 0 15 985 806 0 977 39 989 17 977 0 98
5 977 977 0 990 883 0 0 +15 989 912 0 991 39 992 17 991 0 989 991 991 0 993 894
 0 0 +15 992 1018 0 994 39 995 17 994 0 992 994 994 0 996 904 0 0 +15 995 1131 0
 997 39 998 17 997 0 995 997 997 0 999 913 0 0 +15 998 1200 0 1000 39 1001 17 10
00 0 998 1000 1000 0 565 914 0 0 +15 1001 1268 0 967 39 1002 17 967 0 1001 967 9
67 0 1003 922 0 0 +15 1002 1336 0 1004 39 1005 17 1004 0 1002 1004 1004 0 1006 9
31 0 0 +15 1005 1449 0 1007 39 0 17 1007 0 1005 1007 1007 0 1008 949 0 0 -17 100
8 0 505 1008 1008 0 1007 949 0 0 +16 949 1457 898 ?1008 944 954 1009 0 0 18 81 1
 898 1683 183 949 0 0 890 1010 1011 31 1009 1493 0 949 957 1012 0 -6938893903907
23e-32 0 -.03175 0 0 1 1 0 0 .0069 31 957 1494 0 954 0 1009 0 +693889390390723e-
32 0 -.0125 0 0 -1 0 1 0 .0069 31 1012 1431 0 940 1009 950 0 +693889390390723e-3
2 0 -.0125 0 0 -1 0 1 0 .011875 16 940 1407 1013 ?1014 936 944 1012 0 0 18 31 95
0 1430 0 944 1012 941 0 +693889390390723e-32 0 0 0 0 -1 0 1 0 .011875 31 941 138
2 0 936 950 1015 0 +-.1 -.115 0 0 0 1 0 1 0 .011 31 1015 1381 0 931 941 932 0 +-
.1 -.115 -.03175 0 0 1 1 0 0 .011 16 931 1346 887 ?1004 926 936 1015 0 0 18 31 9
32 1314 0 926 1015 968 0 +.1 -.115 0 0 0 1 0 1 0 .011 31 968 1313 0 922 932 923
 0 +.1 -.115 -.03175 0 0 1 1 0 0 .011 31 923 1246 0 918 968 1016 0 +.1 .115 0 0
 0 1 0 1 0 .011 31 1016 1245 0 914 923 915 0 +.1 .115 -.03175 0 0 1 1 0 0 .011 1
6 914 1210 876 ?1000 909 918 1016 0 0 18 31 915 1177 0 909 1016 1017 0 +-.1 .115
 0 0 0 1 0 1 0 .011 31 1017 1176 0 913 915 1018 0 +-.1 .115 -.03175 0 0 1 1 0 0
 .011 16 913 1141 1010 ?997 1019 909 1017 0 0 18 31 1018 1108 0 1019 1017 1020 0
 +-.13 -.13 0 0 0 -1 0 -1 0 .0085 16 1019 1076 952 ?1021 905 913 1018 0 0 18 31
 1020 1107 0 905 1018 906 0 +-.13 -.13 -.008 0 0 1 0 -1 0 .0085 16 905 1075 1022
 ?1023 900 1019 1020 0 0 18 31 906 1106 0 900 1020 1024 0 --.13 -.13 -.008 0 0 -
1 -1 0 0 .0045 31 1024 1062 0 904 906 1025 0 +-.13 -.13 -.03175 0 0 1 1 0 0 .004
5 16 904 1028 981 ?994 963 900 1024 0 0 18 31 1025 1002 0 963 1024 964 0 +.13 -.
13 0 0 0 -1 0 -1 0 .0085 16 963 970 934 ?1026 895 904 1025 0 0 18 31 964 1001 0
 895 1025 896 0 +.13 -.13 -.008 0 0 1 0 -1 0 .0085 31 896 1000 0 889 964 1027 0
 -.13 -.13 -.008 0 0 -1 -1 0 0 .0045 31 1027 956 0 894 896 1028 0 +.13 -.13 -.03
175 0 0 1 1 0 0 .0045 16 894 922 951 ?991 1029 889 1027 0 0 18 31 1028 896 0 102
9 1027 1030 0 +.13 .13 0 0 0 -1 0 -1 0 .0085 16 1029 864 982 ?1031 884 894 1028
 0 0 18 31 1030 895 0 884 1028 885 0 +.13 .13 -.008 0 0 1 0 -1 0 .0085 16 884 86
3 942 ?1032 878 1029 1030 0 0 18 31 885 894 0 878 1030 978 0 -.13 .13 -.008 0 0
 -1 -1 0 0 .0045 81 1 942 1688 183 884 0 0 934 907 1033 17 1032 0 583 1032 1032
 0 1034 884 0 0 +15 583 869 0 1032 581 1035 17 1034 0 585 1034 1034 0 1032 884 0
 0 -15 585 887 0 1034 512 1036 15 1036 888 0 1037 512 0 17 1037 0 1036 1037 1037
 0 1031 1029 0 0 -17 1031 0 1038 1031 1031 0 1037 1029 0 0 +15 1038 856 0 1031 3
61 1039 15 1039 962 0 1026 361 1040 17 1026 0 1039 1026 1026 0 1041 963 0 0 +15
 1040 1068 0 1021 361 1042 17 1021 0 1040 1021 1021 0 1043 1019 0 0 +15 1042 112
5 0 1044 361 1045 17 1044 0 1042 1044 1044 0 912 909 0 0 -15 1045 1194 0 1046 36
1 1047 17 1046 0 1045 1046 1046 0 921 918 0 0 -15 1047 1262 0 1048 361 1049 17 1
048 0 1047 1048 1048 0 930 926 0 0 -15 1049 1330 0 1050 361 1051 17 1050 0 1049
 1050 1050 0 939 936 0 0 -15 1051 1397 0 948 361 0 17 948 0 1051 948 948 0 1052
 944 0 0 +17 1052 0 1053 1052 1052 0 948 944 0 0 -15 1053 1414 0 1052 484 0 17 9
39 0 1054 939 939 0 1050 936 0 0 +15 1054 1365 0 939 464 0 17 930 0 1055 930 930
 0 1048 926 0 0 +15 1055 1297 0 930 461 0 17 921 0 566 921 921 0 1046 918 0 0 +1
5 566 1229 0 921 465 0 17 912 0 1056 912 912 0 1044 909 0 0 +15 1056 1160 0 912
 536 0 17 1043 0 1057 1043 1043 0 1021 1019 0 0 -15 1057 1100 0 1043 538 0 17 10
41 0 1058 1041 1041 0 1026 963 0 0 -15 1058 994 0 1041 442 0 15 1035 870 0 1059
 581 0 17 1059 0 1035 1059 1059 0 882 878 0 0 -17 882 0 1060 882 882 0 1059 878
 0 0 +15 1060 834 0 882 454 0 81 1 934 1687 183 963 0 0 927 942 1061 84 32 1033
 3edba99d704c3fa58b1af2f68ee9b55a84 32 1061 a816d5f8b0754fa5b3361bdb82b5bb1a81 1
 982 1677 183 1029 0 0 979 1013 1062 81 1 1013 1678 183 940 0 0 982 1022 1063 84
 32 1062 319e723b8eec2a04a2d413325089e2f181 1 1022 1679 183 905 0 0 1013 924 106
4 84 32 1063 735e61397a913cacd6e15ad4db92f9ba81 1 924 1680 183 873 0 0 1022 897
 1065 84 32 1064 6e8280896bdab0d05112083d099f3d8c84 32 1065 7be52f26088b22ded208
d7038937548981 1 951 1693 183 894 0 0 876 945 1066 81 1 876 1692 183 914 0 0 869
 951 1067 84 32 1066 210bea13a0ceb078bef42f3b3f59614d84 32 1067 69a7c26aa05d7869
bbd9b084485c497981 1 981 1675 183 904 0 0 887 979 1068 81 1 887 1674 183 931 0 0
 879 981 1069 84 32 1068 29b3b3111a8f6ede05cb03451aeee2d584 32 1069 bc843d2c2d92
1abac1b91de32906092d17 1023 0 571 1023 1023 0 1070 905 0 0 +15 571 1081 0 1023 5
68 1071 17 1070 0 573 1070 1070 0 1023 905 0 0 -15 573 1099 0 1070 538 1057 15 1
071 1082 0 1072 568 0 17 1072 0 1071 1072 1072 0 903 900 0 0 -17 903 0 1073 903
 903 0 1072 900 0 0 +15 1073 1046 0 903 570 0 81 1 952 1695 183 1019 0 0 945 324
 1074 81 1 324 1696 183 322 0 0 952 164 1075 84 32 1074 b6b0860a9a25268505e71748
3014c9fb81 1 164 1697 183 153 0 0 324 299 1076 84 32 1075 c981f249eb34868475aa9e
40df8176e981 1 299 1698 183 297 0 0 164 269 1077 84 32 1076 3329c59bf4c1ae7a4f50
b4734960660581 1 269 1699 183 267 0 0 299 259 1078 84 32 1077 ebbe5c7c4ab159f8b1
22b8a1836ab16e81 1 259 1700 183 248 1079 0 269 209 1080 84 32 1078 9e7397eab2333
857a533a39d647b1c7281 1 1079 39 790 248 0 259 0 1081 1082 81 1 209 1701 183 207
 0 0 259 202 1083 84 32 1080 b9b288ce3681afd2301f0952604375d581 1 202 1702 183 1
75 0 0 209 317 1084 84 32 1083 67c7baf14244beee7aa56bf6a395317081 1 317 1703 183
 315 0 0 202 196 1085 84 32 1084 f00cda34b5924de8e39a9c47f38f2b2c81 1 196 1704 1
83 193 1086 0 317 291 1087 84 32 1085 0f86ae0084d0b0bf200166e8b63a71c281 1 1086
 300 790 193 0 196 846 860 1088 81 1 291 1705 183 289 0 0 196 242 1089 84 32 108
7 d555b1b9b6a07132a3c4810426907a8e81 1 242 1706 183 240 0 0 291 255 1090 84 32 1
089 cdbf07b187495d03cc74062e2905c86f81 1 255 1707 183 253 1081 0 242 228 1091 84
 32 1090 5d2438564bd6be5f2e2ddf19deb924eb81 1 1081 42 790 253 0 255 1079 1092 10
93 84 32 1091 42a03b4a5ff3d18a353f3fb8c0199bb981 1 1092 45 790 249 0 251 1081 84
5 1094 82 1 1093 17 81 1 251 1734 183 249 1092 0 238 226 1095 81 1 845 48 790 21
7 0 262 1092 843 1096 82 1 1094 17 81 1 262 1715 183 217 845 0 233 223 1097 82 1
 1096 17 81 1 233 1714 183 231 0 0 277 262 1098 81 1 223 1716 183 221 850 0 262
 184 1099 84 32 1097 601b7be1f50d5542a6f3deb742d6860d81 1 184 1717 183 60 0 0 22
3 180 1100 84 32 1099 16a82545ca0241159153ccf2245675e284 32 1100 4d80114c7e93e41
9226e4b2fb49b7e7281 1 277 1713 183 161 0 0 284 233 1101 84 32 1098 a6062bebf8fe6
c9cd26e09759f84978a81 1 284 1712 183 282 0 0 309 277 1102 84 32 1101 98178c6218a
b3bee221e380491efc74a81 1 309 1711 183 307 0 0 199 284 1103 84 32 1102 85c0525e2
c071ad4b752f7ad7b386fc981 1 199 1710 183 176 0 0 46 309 1104 84 32 1103 96a6c999
0c6ea630e08d2763d55c596d81 1 46 1709 183 33 0 0 228 199 1105 84 32 1104 59666c9d
94cb90dda8e105505ae81a5184 32 1105 6e8d61899bf7c9b72d002bf9c6e17e4181 1 238 1733
 183 235 0 0 280 251 1106 84 32 1095 ffd5e6dd45d02fb87dd58ce59103829b81 1 280 17
32 183 278 0 0 288 238 1107 84 32 1106 5997f5d20352bcf320ae970432b4c2fa81 1 288
 1731 183 286 0 0 192 280 1108 84 32 1107 3283a21032a513b1abe4581914feb57881 1 1
92 1730 183 171 846 0 313 288 1109 84 32 1108 9aeacad943134d557f713688947ec22181
 1 846 296 790 171 0 192 843 1086 1110 81 1 313 1729 183 311 0 0 174 192 1111 84
 32 1109 a30137d9cf3017e66d00c82a7e871a2a81 1 174 1728 183 168 0 0 219 313 1112
 84 32 1111 9af38eef7fb44020a05d7f24cdcc39fa81 1 219 1727 183 211 0 0 265 174 11
13 84 32 1112 76c6b37aa75ed9817d33ea702c7b08b781 1 265 1726 183 244 0 0 295 219
 1114 84 32 1113 3a8c231bddf33419f1124ddd5a170d8a81 1 295 1725 183 293 0 0 198 2
65 1115 84 32 1114 4cf7c8cf23c39d0194535985a8e00f6181 1 198 1724 183 165 860 0 3
20 295 1116 84 32 1115 c273f3fe7f538b48b4e7d03168b9893581 1 860 303 790 165 0 19
8 1086 850 1117 81 1 320 1723 183 318 0 0 205 198 1118 84 32 1116 5c5d918bc5c06e
c18d9a486a7f0d5bc781 1 205 1722 183 203 0 0 213 320 1119 84 32 1118 b4eb66f9d754
36b9cd565f30a8e934c281 1 213 1721 183 210 0 0 272 205 1120 84 32 1119 da4a201d43
572a558596544dc983ca2e81 1 272 1720 183 270 0 0 185 213 1121 84 32 1120 329f593f
62757ba0e5cd64e02b925af281 1 185 1719 183 301 0 0 180 272 1122 84 32 1121 ea0122
3104feed5f0f2db557a846f33384 32 1122 e1177fbf4f09047a8d567a8b8fa0063f82 1 1117 1
7 82 1 1110 17 82 1 1088 17 82 1 1082 17 81 1 1010 1684 183 913 0 0 898 933 1123
 81 1 933 1685 183 883 0 0 1010 927 1124 84 32 1123 758c29f98312e7a2364075cd2265
f21684 32 1124 f92937ff83f8a91dc481215af016ba0f17 1014 0 496 1014 1014 0 1125 94
0 0 0 +15 496 1413 0 1014 484 1053 17 1125 0 362 1125 1125 0 1014 940 0 0 -15 36
2 1419 0 1125 353 1126 15 1126 1442 0 956 353 0 17 956 0 1126 956 956 0 1127 954
 0 0 +17 1127 0 1128 1127 1127 0 956 954 0 0 -15 1128 1477 0 1127 495 0 84 32 10
11 3779a7120321910d79cfc75ddbbace3515 505 1476 0 1008 495 1128 17 1006 0 485 100
6 1006 0 1004 931 0 0 -15 485 1364 0 1006 464 1054 17 1003 0 466 1003 1003 0 967
 922 0 0 -15 466 1296 0 1003 461 1055 17 565 0 563 565 565 0 1000 914 0 0 -17 99
9 0 539 999 999 0 997 913 0 0 -15 539 1159 0 999 536 1056 17 996 0 575 996 996 0
 994 904 0 0 -15 575 1045 0 996 570 1073 17 993 0 580 993 993 0 991 894 0 0 -15
 580 939 0 993 443 1129 15 1129 940 0 893 443 0 17 893 0 1129 893 893 0 1130 889
 0 0 +17 1130 0 1131 1130 1130 0 893 889 0 0 -15 1131 976 0 1130 438 0 17 990 0
 586 990 990 0 977 883 0 0 -15 586 833 0 990 454 1060 84 32 983 6326856d1124668e
e20b5da3dbe8c9c517 975 0 556 975 975 0 1132 873 0 0 +15 556 762 0 975 346 988 17
 1132 0 455 1132 1132 0 975 873 0 0 -15 455 780 0 1132 450 1133 15 1133 781 0 97
4 450 0 17 974 0 1133 974 974 0 971 969 0 0 -15 973 749 0 971 361 1038 17 962 0
 444 962 962 0 1134 895 0 0 +15 444 975 0 962 438 1131 17 1134 0 578 1134 1134 0
 962 895 0 0 -15 578 993 0 1134 442 1058 84 32 953 8393e21f1a205704e68a160806ec3
fcb84 32 943 1972642c52aae067775055e3572fd7eb84 32 935 e1a2c34928e06ae37a0b40496
941098584 32 925 5838e9e7f9dbbbaaf2f7fd6d4b44dcaf84 32 917 82a22814ef37044f87a6a
34ba1eb699384 32 908 fc7db60a699bf511a8fb887153a4a6c384 32 899 4d59c5738955a18ee
e9ba1d41889582384 32 888 69f5fa5cb2056c3ba450d0a7490b36da84 32 877 4b1bc213aa48e
5b508bd25d689e525b184 32 867 63f1fe0bf31e667535cb2874b94ad1f484 32 864 630514628
7d78632d9fcaf0b51dd93d182 1 861 17 79 27 859 SolidEdge/MNKR_ATTR_TYPE_EX82 1 847
 17 17 109 0 408 263 170 107 1135 257 0 266 +15 408 253 0 170 361 973 17 263 0 4
08 252 109 117 1136 217 0 0 +17 170 0 408 109 173 133 145 171 0 1135 -17 1135 0
 376 163 266 133 109 257 0 0 -17 266 0 376 1135 243 107 122 244 0 1136 +15 376 2
67 0 163 373 0 17 243 0 376 266 125 106 1137 240 0 364 +17 122 0 386 247 1136 10
6 266 244 0 243 -17 1136 0 386 122 119 107 263 217 0 0 -15 386 72 0 1136 372 0 1
7 119 0 386 1136 247 117 130 273 0 1138 +17 247 0 386 119 122 110 364 236 0 0 +1
7 130 0 383 234 1138 110 119 273 0 1139 -17 1138 0 383 130 116 117 252 249 0 263
 -15 383 70 0 1138 379 0 17 116 0 383 1138 234 114 128 270 0 1140 +17 252 0 408
 256 263 114 1138 249 0 0 +17 256 0 408 260 252 111 1140 253 0 0 +17 260 0 408 1
141 256 139 1142 248 0 0 +17 1140 0 380 128 113 114 256 253 0 252 -15 380 68 0 1
140 375 0 17 128 0 380 239 1140 126 116 270 0 234 -17 113 0 380 1140 239 111 125
 267 0 1142 +17 239 0 380 113 128 123 1143 235 0 1137 +17 125 0 376 243 1142 123
 113 267 0 239 -17 1142 0 376 125 1144 111 260 248 0 256 -17 1144 0 376 1142 160
 139 138 175 0 260 -17 160 0 376 1144 163 136 132 161 0 0 +17 138 0 518 159 141
 136 1144 175 0 156 +15 518 361 0 138 515 0 17 159 0 518 179 138 142 156 181 0 0
 -17 141 0 518 138 179 139 1141 165 0 1144 +17 156 0 150 132 151 136 159 181 0 1
60 +17 179 0 518 141 159 103 148 176 0 1141 +17 1141 0 408 173 260 103 141 165 0
 0 -17 173 0 408 170 1141 143 105 193 0 0 -17 105 0 172 148 167 103 173 193 0 17
9 +17 163 0 376 160 1135 120 135 203 0 0 -17 135 0 162 145 152 133 163 203 0 170
 +17 1143 0 354 1139 1137 126 239 235 0 0 -17 1137 0 354 1143 364 123 243 240 0
 0 -17 364 0 354 1137 1139 106 247 236 0 0 -17 1139 0 354 364 1143 110 234 231 0
 247 -17 234 0 383 116 130 126 1139 231 0 1143 +83 1 794 0 84 32 793 f64f87603f6
e96a8608548b814bb14b082 1 786 1540 83 3 785 .717647058823529 .811749446860456 .7
64705882352941 82 1 784 402 82 1 779 1540 83 3 776 .717647058823529 .81174944686
0456 .764705882352941 81 1 764 1360 661 464 0 758 757 769 1145 82 1 772 402 81 1
 757 1292 661 461 0 751 750 764 1146 82 1 1145 1702 81 1 750 1224 661 465 0 744
 740 757 1147 82 1 1146 1701 81 1 740 1155 661 536 0 723 734 750 1148 82 1 1147
 1700 82 1 1148 1698 80 5 666 600 1149 9000 2 2 2 2 3 5 0 0 0 FFFFTFFFFFFFFF1 1
 2 3 7 82 1 765 5 82 19 766 0 1 0 0 0 0 3 0 1 0 0 1 2 1 1 1359 0 0 0 83 20 767 .
022 .0127 .0127 82 .0127 .0127 0 .0508 2 0 0 0 0 .1 0 0 0 .04363323129985825 .1
 1 87 2 768 -.1 -.115 0 0 0 1 79 28 1149 SolidEdge/EndHoleThread_info82 1 759 5
 82 19 760 0 1 0 0 0 0 3 0 1 0 0 1 2 1 1 1291 0 0 0 83 20 761 .022 .0127 .0127 8
2 .0127 .0127 0 .0508 2 0 0 0 0 .1 0 0 0 .04363323129985825 .1 1 87 2 762 .1 -.1
15 0 0 0 1 83 3 756 .717647058823529 .811749446860456 .764705882352941 82 1 752
 5 82 19 753 0 1 0 0 0 0 3 0 1 0 0 1 2 1 1 1223 0 0 0 83 20 754 .022 .0127 .0127
 82 .0127 .0127 0 .0508 2 0 0 0 0 .1 0 0 0 .04363323129985825 .1 1 87 2 755 .1 .
115 0 0 0 1 83 3 749 .717647058823529 .811749446860456 .764705882352941 82 1 745
 5 82 19 746 0 1 0 0 0 0 3 0 1 0 0 1 2 1 1 1154 0 0 0 83 20 747 .022 .0127 .0127
 82 .0127 .0127 0 .0508 2 0 0 0 0 .1 0 0 0 .04363323129985825 .1 1 87 2 748 -.1
 .115 0 0 0 1 83 3 742 .717647058823529 .811749446860456 .764705882352941 82 1 7
41 1220 83 3 738 .717647058823529 .811749446860456 .764705882352941 81 1 718 104
1 661 570 0 704 713 732 1150 82 1 735 1220 82 1 1150 1220 83 3 731 .717647058823
529 .811749446860456 .764705882352941 82 1 724 5 82 20 725 2 1 0 4 1 0 3 0 1 0 1
 1 2 1 1 1040 1 1093 0 0 83 20 726 .009 .017 .008 82 .017 .008 0 .0508 2 0 9 7.9
17 7.773 .1 0 0 0 .04363323129985825 .1 1 84 6 727 M9 x 187 2 728 -.13 -.13 0 0
 0 1 83 3 721 .717647058823529 .811749446860456 .764705882352941 82 1 719 1219 8
3 3 716 .717647058823529 .811749446860456 .764705882352941 81 1 699 935 661 443
 0 683 693 711 1151 82 1 714 1219 82 1 1151 1219 83 3 710 .717647058823529 .8117
49446860456 .764705882352941 82 1 705 5 82 20 706 2 1 0 4 1 0 3 0 1 0 1 1 2 1 1
 934 1 987 0 0 83 20 707 .009 .017 .008 82 .017 .008 0 .0508 2 0 9 7.917 7.773 .
1 0 0 0 .04363323129985825 .1 1 84 6 708 M9 x 187 2 709 .13 -.13 0 0 0 1 83 3 70
2 .717647058823529 .811749446860456 .764705882352941 82 1 700 1218 83 3 697 .717
647058823529 .811749446860456 .764705882352941 81 1 678 829 661 454 0 667 675 69
1 1152 82 1 694 1218 82 1 1152 1218 83 3 690 .717647058823529 .811749446860456 .
764705882352941 82 1 684 5 82 20 685 2 1 0 4 1 0 3 0 1 0 1 1 2 1 1 828 1 881 0 0
 83 20 686 .009 .017 .008 82 .017 .008 0 .0508 2 0 9 7.917 7.773 .1 0 0 0 .04363
323129985825 .1 1 84 6 687 M9 x 187 2 688 .13 .13 0 0 0 1 83 3 681 .717647058823
529 .811749446860456 .764705882352941 82 1 679 1214 81 1 663 722 661 339 0 665 6
60 673 1153 82 1 676 1214 82 1 1153 1214 82 1 668 5 82 20 669 2 1 0 4 1 0 3 0 1
 0 1 1 2 1 1 721 1 774 0 0 83 20 670 .009 .017 .008 82 .017 .008 0 .0508 2 0 9 7
.917 7.773 .1 0 0 0 .04363323129985825 .1 1 84 6 671 M9 x 187 2 672 -.13 .13 0 0
 0 1 82 1 664 921 79 17 662 SolidEdge/Display83 1 658 0 83 1 654 0 83 1 649 0 83
 1 639 0 83 1 631 0 83 1 627 0 83 1 622 0 83 1 617 0 83 3 605 .717647058823529 .
811749446860456 .764705882352941 79 15 599 SDL/TYSA_COLOUR84 32 593 ef1585e1dae3
54d2c7b525911498bd8683 1 592 0 51 486 1378 0 464 497 467 0 +-.1 -.115 -.42545042
3081233 0 0 1 .011 1 0 0 51 497 1427 0 484 363 486 0 -693889390390723e-32 0 -.01
25 0 0 1 .011875 1 0 0 50 363 1429 0 353 506 497 0 +693889390390723e-32 0 -.0125
 0 0 -1 -1 0 0 51 506 1490 0 495 0 363 0 -693889390390723e-32 0 -.43795042308123
3 0 0 1 .0069 1 0 0 84 32 561 be6a59c46fd05a7533112be5a35ef6d083 3 559 .71764705
8823529 .811749446860456 .764705882352941 83 1 553 0 83 3 551 .717647058823529 .
811749446860456 .764705882352941 83 1 543 0 83 1 535 0 83 1 529 0 83 1 523 0 84
 32 514 f065a7f36c37cf3fcdd1f3d113b584ad83 3 508 .717647058823529 .8117494468604
56 .764705882352941 84 32 502 cf5066537605e3fca126ce2694b8af1f83 3 500 .71764705
8823529 .811749446860456 .764705882352941 84 32 491 478fda950b3764c1a961e5664770
93fc83 3 489 .717647058823529 .811749446860456 .764705882352941 83 1 480 0 83 3
 478 .717647058823529 .811749446860456 .764705882352941 79 21 473 SDL/TYSA_TRANS
LUCENCY83 1 460 0 83 1 449 0 84 32 437 7b7c4268a5a99e74545e12f17094cbe883 1 435
 0 79 15 431 UGS/ObjectState84 32 425 40102424335a574aae981212f587372b84 32 417
 31683052c4b15c4a4db21480ee8df8f517 52 0 50 47 321 63 72 224 0 0 -17 72 0 334 31
4 325 70 52 224 0 321 +84 32 396 e0ff455cd99969456fa1488e5f638d1a84 32 359 98fe6
9359c32127861d2c9223484948d84 32 344 9014a2b444bf97d8c7a659e3f09ee87e84 32 327 b
c40804c1037437e82703f024a3d970d84 32 186 9b0bc7559004f0d2fa9542127709a0b819 40 8
3 0 18 0 32 28 S0 74 20 38 10 0 0 946 783 507 758 1154 499 493 36 452 26 0 0 0 0
 0 0 0 0 0 0 81 5 1154 1191 430 18 1155 36 1155 0 1156 0 1157 1158 1159 81 2 36
 1658 1160 18 1154 26 0 0 1161 1162 80 2 1160 1163 1164 8004 0 0 0 0 3 5 0 0 0 F
FTFFFFFFFFFFF2 3 83 1 1161 7830.64 84 8 1162 Kg/Cu M 79 16 1164 SDL/TYSA_DENSITY
80 5 430 666 1165 9000 0 0 0 0 3 6 0 0 0 TTTFFFFFFFFFFF1 1 2 1 2 81 5 1155 804 4
30 18 0 1154 0 1154 1166 0 1167 1168 1169 82 9 1156 1 1707 62 0 4 4 4 0 0 83 2 1
157 0 0 82 4 1158 1074791425 1108345857 1242563585 1209009153 83 4 1159 .2 .2 -.
23 -.23 82 9 1166 1 1221 62 0 4 4 4 0 0 83 2 1167 0 0 82 4 1168 1074791425 11083
45857 1242563585 1209009153 83 4 1169 .26 .26 -.26 -.26 79 21 1165 SolidEdge/Pat
ternData80 1 35 1170 1171 9000 0 0 0 0 3 5 0 0 0 FFTFFFFFFFFFFF1 82 1 37 70 79 2
4 1171 UG2/BODY_COLOR_ATTRIBUTE81 1 16 159 35 7 1172 0 0 0 1173 70 17 0 4 T7 0 0
 4 20 1 1174 1174 13 19 91 0 7 0 1175 0 0 1176 0 50 20 86 0 1175 1177 0 0 +.165
 .17 -.02575 -1 0 0 0 0 1 30 21 90 0 1178 1179 0 0 +.165 .17 -.02575 0 -1 0 29 2
2 67 0 1180 1181 0 -.165 .15 -.02575 19 23 1 0 7 1176 0 1182 V0 16 24 73 1183 ?1
184 0 1185 1179 0 0 7 18 25 15 0 1186 0 1187 1188 ?7 17 1186 0 1189 1190 1191 25
 1192 1193 0 1194 +18 1187 10 0 1191 25 1195 1196 ?7 29 1188 17 0 25 1196 1197 -
.165 .17 -.02575 29 1196 12 0 1187 1198 1188 -.165 .17 -.08575 29 1197 70 0 1199
 1188 1200 .165 .15 -.02575 18 1199 60 0 1201 1202 0 1197 ?7 29 1200 69 0 1202 1
197 1181 .165 .15 -.08575 18 1202 58 0 1203 1204 1199 1200 ?7 29 1181 68 0 1204
 1200 22 -.165 .15 -.08575 18 1204 56 0 1205 1180 1202 1181 ?7 17 1205 0 1206 12
07 1184 1204 1203 1208 0 1209 +18 1180 54 0 1210 1211 1204 22 ?7 17 1210 0 1212
 1194 1209 1180 1213 1214 0 1215 +18 1211 2 0 1190 1195 1180 1216 ?7 17 1190 0 1
189 1217 1186 1211 1218 1219 0 1220 +18 1195 5 0 1221 1187 1211 1198 ?7 29 1216
 4 0 1211 0 1198 .165 .17 -.02575 29 1198 7 0 1195 1216 1196 .165 .17 -.08575 17
 1221 0 1206 1184 1207 1195 1191 1222 0 1217 -15 1206 79 0 1205 1223 0 17 1184 0
 1206 1205 1221 1202 1224 24 0 1225 +17 1207 0 1206 1221 1205 1187 1209 1185 0 1
192 -17 1191 0 1189 1186 1217 1187 1221 1222 0 1207 +16 1222 11 1226 ?1191 1193
 1227 1228 0 0 7 17 1217 0 1189 1191 1190 1195 1229 1227 0 1224 +15 1189 23 0 12
17 1230 0 17 1229 0 1231 1232 1224 1211 1217 1227 0 0 -16 1227 6 1233 ?1217 1222
 1234 1235 0 0 7 17 1224 0 1231 1229 1225 1195 1184 24 0 0 -15 1231 81 0 1225 11
75 0 17 1225 0 1231 1224 1232 1202 1236 1237 0 0 +17 1232 0 1231 1225 1229 1199
 1220 1178 0 1236 +17 1236 0 1238 1239 1203 1199 1225 1237 0 0 -16 1237 52 1240
 ?1225 1208 0 1241 0 0 7 81 1 1240 122 183 1237 0 0 1242 1243 1244 16 1208 50 12
45 ?1205 1214 1237 1246 0 0 7 30 1241 66 0 1237 1247 1246 0 +.165 .15 -.02575 0
 0 -1 30 1247 22 0 1219 1248 1241 0 +-.165 .17 -.02575 1 0 0 30 1246 65 0 1208 1
241 1249 0 +.165 .15 -.08575 -1 0 0 30 1249 64 0 1214 1246 1250 0 +-.165 .15 -.0
8575 0 0 1 16 1214 48 1251 ?1210 1234 1208 1249 0 0 7 30 1250 63 0 1234 1249 125
2 0 +-.165 .15 -.02575 1 0 0 16 1234 46 1253 ?1201 1227 1214 1250 0 0 7 30 1252
 87 0 1254 1250 1255 0 +-.165 .17 -.02575 0 -1 0 16 1254 71 1242 ?1215 1185 1178
 1252 0 0 7 30 1255 88 0 1185 1252 1179 0 +-.165 .17 -.08575 0 -1 0 16 1185 72 1
256 ?1209 24 1254 1255 0 0 7 30 1179 89 0 24 1255 21 0 +.165 .17 -.08575 0 -1 0
 81 1 1256 113 183 1185 0 0 1226 1245 1257 17 1209 0 1212 1210 1192 1204 1207 11
85 0 1213 +15 1212 77 0 1210 1258 0 17 1192 0 1212 1209 1194 1187 1186 1193 0 0
 -17 1213 0 1238 1203 1239 1204 1210 1214 0 0 -15 1238 45 0 1236 1259 0 17 1203
 0 1238 1236 1213 1202 1205 1208 0 1184 -17 1239 0 1238 1213 1236 1180 1201 1234
 0 0 -17 1201 0 1260 1220 1215 1199 1239 1234 0 1232 +15 1260 75 0 1201 1261 0 1
7 1220 0 1260 1218 1201 1211 1232 1178 0 1229 -17 1215 0 1260 1201 1218 1180 119
4 1254 0 1239 +17 1218 0 1260 1215 1220 25 1190 1219 0 0 -17 1194 0 1212 1192 12
10 25 1215 1254 0 1218 -16 1219 20 1262 ?1190 1178 1193 1247 0 0 7 81 1 1262 111
 183 1219 0 0 0 1226 1263 16 1178 74 1264 ?1232 1254 1219 21 0 0 7 16 1193 16 12
65 ?1186 1219 1222 1248 0 0 7 81 1 1265 117 183 1193 0 0 1264 1183 1266 30 1248
 19 0 1193 1228 1247 0 +-.165 .17 -.08575 0 0 1 30 1228 14 0 1222 1235 1248 0 +.
165 .17 -.08575 -1 0 0 30 1235 9 0 1227 0 1228 0 +.165 .17 -.02575 0 0 -1 81 1 1
264 116 183 1178 0 0 1253 1265 1267 81 1 1183 118 183 24 0 0 1265 1251 1268 84 3
2 1266 2729736e4a468d64db84624628ea5f8b81 1 1251 119 183 1214 0 0 1183 1233 1269
 84 32 1268 119ba4892d827704b8364cc75d2f0cdc81 1 1233 120 183 1227 0 0 1251 1242
 1270 84 32 1269 121002fbaa9068374cdc639037e2423881 1 1242 121 183 1254 0 0 1233
 1240 1271 84 32 1270 c707a71720eeb34a3e75e36dc86171f784 32 1271 812052ac3e95939
38609e807e3f2a65b81 1 1253 115 183 1234 0 0 1245 1264 1272 84 32 1267 f9f3aa9372
d133e789d7f64bfd5e7bed81 1 1245 114 183 1208 0 0 1256 1253 1273 84 32 1272 ef90e
ddd23ec31a30191ef38a06c509f84 32 1273 5814cc635a5b154cba6d11bb0703b0af81 1 1226
 112 183 1222 0 0 1262 1256 1274 84 32 1263 ab4885be4ad44e4868e820a92e94bc0384 3
2 1274 e3ea8b1965eb8e2ca6e65b72d573f46814 1261 76 1275 ?1230 1258 1260 19 1276 -
0 0 1230 1258 1182 81 1 1275 156 474 1261 1277 0 1278 1279 1280 14 1230 24 1279
 ?1259 1261 1189 19 1281 +0 0 1259 1261 1182 14 1258 78 1278 ?1261 1223 1212 19
 1282 -0 0 1261 1223 1182 50 1276 83 0 1261 1283 1282 0 +-.165 .17 -.02575 0 0 -
1 -1 0 0 13 1182 3 0 0 0 0 0 0 23 1175 14 1175 82 1284 ?1223 0 1231 19 20 -0 0 1
223 0 1182 81 1 1284 153 474 1175 1285 0 0 1286 1287 14 1223 80 1286 ?1258 1175
 1206 19 1177 -0 0 1258 1175 1182 81 1 1286 154 474 1223 1288 0 1284 1278 1289 5
0 1177 85 0 1223 1282 20 0 +.165 .17 -.08575 0 0 1 1 0 0 50 1282 84 0 1258 1276
 1177 0 +-.165 .17 -.08575 1 0 0 0 0 -1 81 1 1288 124 183 1223 0 1286 1243 1277
 1290 81 1 1278 155 474 1258 1291 0 1286 1275 1292 83 3 1289 .596063172350652 .6
66666666666667 .686259250782025 81 1 1291 128 183 1258 0 1278 1293 0 1294 83 3 1
292 .596063172350652 .666666666666667 .686259250782025 81 1 1293 127 183 1230 0
 1279 1285 1291 1295 84 32 1294 936368bba95b862cf829197b1f1a895381 1 1279 157 47
4 1230 1293 0 1275 1296 1297 81 1 1285 126 183 1175 0 1284 1277 1293 1298 84 32
 1295 82ffd38710e107860f25e68689d665af81 1 1277 125 183 1261 0 1275 1288 1285 12
99 84 32 1298 550941c2297937ad9ab2be837ac79ff684 32 1299 725d2fb79194836e06f75f0
15e1dbacd81 1 1296 158 474 1259 1243 0 1279 0 1300 83 3 1297 .596063172350652 .6
66666666666667 .686259250782025 14 1259 42 1296 ?0 1230 1238 19 1283 -0 0 0 1230
 1182 81 1 1243 123 183 1259 0 1296 1240 1288 1301 83 3 1300 .596063172350652 .6
66666666666667 .686259250782025 84 32 1301 54301b61103bdde22e6e007d8b232a1f50 12
83 62 0 1259 1281 1276 0 +0 .15 0 0 1 0 0 0 1 50 1281 25 0 1230 0 1283 0 +0 .17
 0 0 1 0 0 0 1 84 32 1290 730e7c87f0e1c2eaddab213393b4190a83 3 1287 .59606317235
0652 .666666666666667 .686259250782025 83 3 1280 .596063172350652 .6666666666666
67 .686259250782025 84 32 1257 6623c52a316b825ac384c3d67d5ed7a684 32 1244 11e7cd
840b64fbcb4c717aed8062910119 1176 92 0 7 0 23 19 S0 74 20 1174 4 0 0 1172 1291 1
296 16 0 0 0 0 0 0 0 0 0 0 0 0 0 0 0 0 81 2 1172 109 1160 7 0 16 0 0 1302 1303 8
3 1 1302 7830.64 84 8 1303 Kg/Cu M 82 1 1173 129 81 1 5 159 35 3 1304 0 0 0 1305
 70 6 0 4 T3 0 0 4 20 1 1306 1306 13 8 91 0 3 0 1307 0 0 1308 0 50 9 86 0 1307 1
309 0 0 +-.165 -.17 -.08575 -336431219583381e-30 0 1 1 0 336431219583381e-30 30
 10 90 0 1310 1311 0 0 +-.165 -.17 -.08575 0 1 0 29 11 67 0 1312 1313 0 -.165 -.
15 -.02575 19 12 1 0 3 1308 0 1314 V0 16 13 73 1315 ?1316 0 1317 1311 0 0 3 18 1
4 15 0 1318 0 1319 1320 ?3 17 1318 0 1321 1322 1323 14 1324 1325 0 1326 +18 1319
 10 0 1323 14 1327 1328 ?3 29 1320 17 0 14 1328 1329 -.165 -.17 -.02575 29 1328
 12 0 1319 1330 1320 .165 -.17 -.02575 29 1329 70 0 1331 1320 1332 -.165 -.15 -.
08575 18 1331 60 0 1333 1334 0 1329 ?3 29 1332 69 0 1334 1329 1313 .165 -.15 -.0
8575 18 1334 58 0 1335 1336 1331 1332 ?3 29 1313 68 0 1336 1332 11 .165 -.15 -.0
2575 18 1336 56 0 1337 1312 1334 1313 ?3 17 1337 0 1338 1339 1316 1336 1335 1340
 0 1341 +18 1312 54 0 1342 1343 1336 11 ?3 17 1342 0 1344 1326 1341 1312 1345 13
46 0 1347 +18 1343 2 0 1322 1327 1312 1348 ?3 17 1322 0 1321 1349 1318 1343 1350
 1351 0 1352 +18 1327 5 0 1353 1319 1343 1330 ?3 29 1348 4 0 1343 0 1330 -.165 -
.17 -.08575 29 1330 7 0 1327 1348 1328 .165 -.17 -.08575 17 1353 0 1338 1316 133
9 1327 1323 1354 0 1349 -15 1338 79 0 1337 1355 0 17 1316 0 1338 1337 1353 1334
 1356 13 0 1357 +17 1339 0 1338 1353 1337 1319 1341 1317 0 1324 -17 1323 0 1321
 1318 1349 1319 1353 1354 0 1339 +16 1354 11 1358 ?1323 1325 1359 1360 0 0 3 17
 1349 0 1321 1323 1322 1327 1361 1359 0 1356 +15 1321 23 0 1349 1362 0 17 1361 0
 1363 1364 1356 1343 1349 1359 0 0 -16 1359 6 1365 ?1349 1354 1366 1367 0 0 3 17
 1356 0 1363 1361 1357 1327 1316 13 0 0 -15 1363 81 0 1357 1307 0 17 1357 0 1363
 1356 1364 1334 1368 1369 0 0 +17 1364 0 1363 1357 1361 1331 1352 1310 0 1368 +1
7 1368 0 1370 1371 1335 1331 1357 1369 0 0 -16 1369 52 1372 ?1357 1340 0 1373 0
 0 3 81 1 1372 116 183 1369 0 0 1315 1358 1374 16 1340 50 1375 ?1337 1346 1369 1
376 0 0 3 30 1373 66 0 1369 1377 1376 0 +-.165 -.15 -.08575 1 0 336431219583381e
-30 30 1377 22 0 1351 1378 1373 0 +-.165 -.17 -.02575 0 0 -1 30 1376 65 0 1340 1
373 1379 0 +.165 -.15 -.08575 -462592926927149e-30 0 1 30 1379 64 0 1346 1376 13
80 0 +.165 -.15 -.02575 -1 0 0 16 1346 48 1381 ?1342 1366 1340 1379 0 0 3 30 138
0 63 0 1366 1379 1382 0 +-.165 -.15 -.02575 0 0 -1 16 1366 46 1383 ?1333 1359 13
46 1380 0 0 3 30 1382 87 0 1384 1380 1385 0 +-.165 -.17 -.02575 0 1 0 16 1384 71
 1386 ?1347 1317 1310 1382 0 0 3 30 1385 88 0 1317 1382 1311 0 +.165 -.17 -.0257
5 0 1 0 16 1317 72 1387 ?1341 13 1384 1385 0 0 3 30 1311 89 0 13 1385 10 0 +.165
 -.17 -.08575 0 1 0 81 1 1387 112 183 1317 0 0 1375 1388 1389 17 1341 0 1344 134
2 1324 1336 1339 1317 0 1345 +15 1344 77 0 1342 1390 0 17 1324 0 1344 1341 1326
 1319 1318 1325 0 0 -17 1345 0 1370 1335 1371 1336 1342 1346 0 0 -15 1370 45 0 1
368 1391 0 17 1335 0 1370 1368 1345 1334 1337 1340 0 1316 -17 1371 0 1370 1345 1
368 1312 1333 1366 0 0 -17 1333 0 1392 1352 1347 1331 1371 1366 0 1364 +15 1392
 75 0 1333 1393 0 17 1352 0 1392 1350 1333 1343 1364 1310 0 1361 -17 1347 0 1392
 1333 1350 1312 1326 1384 0 1371 +17 1350 0 1392 1347 1352 14 1322 1351 0 0 -17
 1326 0 1344 1324 1342 14 1347 1384 0 1350 -16 1351 20 1394 ?1322 1310 1325 1377
 0 0 3 81 1 1394 118 183 1351 0 0 1358 1386 1395 16 1310 74 1396 ?1364 1384 1351
 10 0 0 3 16 1325 16 1388 ?1318 1351 1354 1378 0 0 3 81 1 1388 113 183 1325 0 0
 1387 1381 1397 30 1378 19 0 1325 1360 1377 0 +.165 -.17 -.02575 -1 0 0 30 1360
 14 0 1354 1367 1378 0 +.165 -.17 -.08575 -462592926927149e-30 0 1 30 1367 9 0 1
359 0 1360 0 +-.165 -.17 -.08575 1 0 336431219583381e-30 81 1 1381 114 183 1346
 0 0 1388 1315 1398 84 32 1397 81103dcdf8c81af047aeaa7db6ff0d5c81 1 1315 115 183
 13 0 0 1381 1372 1399 84 32 1398 92b98deeb5cb8c7e7b0072ca4f24d0d984 32 1399 128
6a6b5b2b45c09ddb803d5199ba8ff81 1 1396 122 183 1310 0 0 1383 1400 1401 81 1 1383
 121 183 1366 0 0 1365 1396 1402 81 1 1400 123 183 1390 0 1403 1396 1404 1405 84
 32 1401 973d7378f974eba09cfcc19798faa7ba14 1390 78 1403 ?1393 1355 1344 8 1406
 -0 0 1393 1355 1314 81 1 1403 155 474 1390 1400 0 1407 1408 1409 81 1 1404 124
 183 1362 0 1410 1400 1411 1412 84 32 1405 33705adfe26ac57ed77167579070da0e14 13
62 24 1410 ?1391 1393 1321 8 1413 +0 0 1391 1393 1314 81 1 1410 157 474 1362 140
4 0 1408 1414 1415 81 1 1411 125 183 1355 0 1407 1404 1416 1417 84 32 1412 4baf9
a534a387d86a05d33cdf7d2743a14 1355 80 1407 ?1390 1307 1338 8 1309 -0 0 1390 1307
 1314 81 1 1407 154 474 1355 1411 0 1418 1403 1419 81 1 1416 126 183 1307 0 1418
 1411 1420 1421 84 32 1417 ecc02cfc21f0a480d804abd811961ca314 1307 82 1418 ?1355
 0 1363 8 9 -0 0 1355 0 1314 81 1 1418 153 474 1307 1416 0 0 1407 1422 81 1 1420
 127 183 1391 0 1414 1416 1423 1424 84 32 1421 9dfcfc0eb23f3cf12064f1afce60afee1
4 1391 42 1414 ?0 1362 1370 8 1425 -0 0 0 1362 1314 81 1 1414 158 474 1391 1420
 0 1410 0 1426 81 1 1423 128 183 1393 0 1408 1420 0 1427 84 32 1424 e33bc33fa38f
0b0cc23a56a38dbc000814 1393 76 1408 ?1362 1390 1392 8 1428 -0 0 1362 1390 1314 8
1 1 1408 156 474 1393 1423 0 1403 1410 1429 84 32 1427 2dac6e31968f07343a553c4e1
4fa38bc83 3 1429 .596063172350652 .666666666666667 .686259250782025 50 1428 83 0
 1393 1425 1406 0 +-.165 -.17 -.02575 1 0 0 0 0 -1 13 1314 3 0 0 0 0 0 0 12 1307
 50 1425 62 0 1391 1413 1428 0 +0 -.15 0 0 -1 0 0 0 -1 50 1406 84 0 1390 1428 13
09 0 +.165 -.17 -.02575 0 0 -1 -1 0 0 50 1309 85 0 1355 1406 9 0 +.165 -.17 -.08
575 -1 0 -462592926927149e-30 -462592926927149e-30 0 1 50 1413 25 0 1362 0 1425
 0 +0 -.17 0 0 -1 0 0 0 -1 83 3 1426 .596063172350652 .666666666666667 .68625925
0782025 83 3 1422 .596063172350652 .666666666666667 .686259250782025 83 3 1419 .
596063172350652 .666666666666667 .686259250782025 83 3 1415 .596063172350652 .66
6666666666667 .686259250782025 83 3 1409 .596063172350652 .666666666666667 .6862
59250782025 81 1 1365 120 183 1359 0 0 1386 1383 1430 84 32 1402 462e5d0b6dd88c3
fdec914fd90b7e3f881 1 1386 119 183 1384 0 0 1394 1365 1431 84 32 1430 a29875350a
e26088eef5bc2c52770a2384 32 1431 3bc82c3adf55568cd7dad9f534ba36ae81 1 1358 117 1
83 1354 0 0 1372 1394 1432 84 32 1395 bece9ec842897b3a4bdb4c9c74a201ed84 32 1432
 74d7ea2858a0d55890643f4c273b987981 1 1375 111 183 1340 0 0 0 1387 1433 84 32 13
89 8e34d7ec3b4bba387048c18ba96d82cd84 32 1433 6379893afb281e6fc888746c70759b4d84
 32 1374 3d0aa2c9256216428d71a7e28e7d339e19 1308 92 0 3 0 12 8 S0 74 20 1306 4 0
 0 1304 1423 1414 5 0 0 0 0 0 0 0 0 0 0 0 0 0 0 0 0 81 2 1304 109 1160 3 0 5 0 0
 1434 1435 83 1 1434 7830.64 84 8 1435 Kg/Cu M 82 1 1305 129 1 0 
